<svg width="776" height="776" viewbox = "0 0 776 776"  xmlns="http://www.w3.org/2000/svg">

<!--<json>{
    "text": "WWW.    TRASH   ROBOT   .NET",
    "left_margin": 0.15,
    "top_margin": 0.15,
    "horizontal_gap": 0.04,
    "vertical_gap": 0.09,
    "number_of_columns": 8,
    "rainbow": true
}</json>-->
<path d = "M 0 0 L776 0 L776 776 L0 776 L0 0 Z" stroke = "black" stroke-width = "1" fill = "black" />
<path d = "M116.4 116.4L 139.68 116.4 L 147.44 131.92000000000002 L 155.20000000000002 116.4 L 161.40800000000002 131.92000000000002 L 169.168 116.4 L 194 116.4 L 162.96 194 L 156.752 181.584 L 148.99200000000002 194 L 116.4 116.4 Z" stroke = "red" stroke-width = "1" fill = "red" />
<path d = "M225.04000000000002 116.4L 248.32000000000002 116.4 L 256.08000000000004 131.92000000000002 L 263.84000000000003 116.4 L 270.048 131.92000000000002 L 277.80800000000005 116.4 L 302.64000000000004 116.4 L 271.6 194 L 265.39200000000005 181.584 L 257.632 194 L 225.04000000000002 116.4 Z" stroke = "orange" stroke-width = "1" fill = "orange" />
<path d = "M333.68 116.4L 356.96000000000004 116.4 L 364.72 131.92000000000002 L 372.48 116.4 L 378.688 131.92000000000002 L 386.44800000000004 116.4 L 411.28000000000003 116.4 L 380.24 194 L 374.03200000000004 181.584 L 366.272 194 L 333.68 116.4 Z" stroke = "yellow" stroke-width = "1" fill = "yellow" />
<path d = "M467.152 194L 467.152 173.824 L 487.328 173.824 L 487.328 194 L 467.152 194 Z" stroke = "green" stroke-width = "1" fill = "green" />
<path d = "M116.4 263.84L 194 263.84 L 194 299.536 L 169.168 299.536 L 169.168 341.44 L 138.12800000000001 341.44 L 138.12800000000001 299.536 L 116.4 299.536 L 116.4 263.84 Z" stroke = "blue" stroke-width = "1" fill = "blue" />
<path d = "M225.04000000000002 341.44L 225.04000000000002 263.84 L 285.56800000000004 263.84 L 302.64000000000004 279.35999999999996 L 304.192 310.4 L 288.672 319.712 L 302.64000000000004 341.44 L 271.6 341.44 L 262.288 325.91999999999996 L 262.288 341.44 L 257.632 341.44 L 257.632 304.192 L 270.048 304.192 L 279.36 293.328 L 271.6 282.464 L 256.08000000000004 282.464 L 256.08000000000004 304.192 L 257.632 304.192 L 257.632 341.44 L 225.04000000000002 341.44 Z" stroke = "purple" stroke-width = "1" fill = "purple" />
<path d = "M333.68 341.44L 349.2 263.84 L 395.76 262.28799999999995 L 411.28000000000003 341.44 L 386.44800000000004 341.44 L 374.03200000000004 279.35999999999996 L 367.824 307.296 L 381.79200000000003 307.296 L 384.896 325.91999999999996 L 364.72 325.91999999999996 L 360.064 341.44 L 333.68 341.44 Z" stroke = "red" stroke-width = "1" fill = "red" />
<path d = "M468.704 341.44L 451.632 341.44 L 442.32 329.024 L 442.32 315.056 L 450.08 315.056 L 456.288 322.816 L 460.944 327.472 L 474.912 327.472 L 485.776 327.472 L 495.088 321.264 L 496.64 311.952 L 484.224 302.64 L 467.152 296.43199999999996 L 453.18399999999997 291.77599999999995 L 446.976 284.01599999999996 L 443.872 277.808 L 442.32 273.152 L 445.424 266.94399999999996 L 450.08 265.392 L 460.944 263.84 L 479.568 263.84 L 493.536 263.84 L 501.296 266.94399999999996 L 513.712 271.59999999999997 L 516.816 277.808 L 519.92 284.01599999999996 L 509.056 290.224 L 496.64 280.912 L 478.016 277.808 L 468.704 279.35999999999996 L 474.912 284.01599999999996 L 493.536 290.224 L 507.504 297.984 L 512.16 308.84799999999996 L 513.712 324.368 L 505.952 332.128 L 493.536 341.44 L 468.704 341.44 Z" stroke = "orange" stroke-width = "1" fill = "orange" />
<path d = "M550.9600000000002 341.44L 550.9600000000002 263.84 L 577.3440000000002 263.84 L 577.3440000000002 279.35999999999996 L 600.6240000000001 279.35999999999996 L 600.6240000000001 263.84 L 628.5600000000002 263.84 L 628.5600000000002 341.44 L 602.1760000000002 341.44 L 602.1760000000002 322.816 L 577.3440000000002 322.816 L 577.3440000000002 341.44 L 550.9600000000002 341.44 Z" stroke = "yellow" stroke-width = "1" fill = "yellow" />
<path d = "M116.4 488.88000000000005L 116.4 411.28000000000003 L 176.928 411.28000000000003 L 194 426.8 L 195.55200000000002 457.84000000000003 L 180.032 467.15200000000004 L 194 488.88000000000005 L 162.96 488.88000000000005 L 153.64800000000002 473.36 L 153.64800000000002 488.88000000000005 L 148.99200000000002 488.88000000000005 L 148.99200000000002 451.63200000000006 L 161.40800000000002 451.63200000000006 L 170.72000000000003 440.76800000000003 L 162.96 429.90400000000005 L 147.44 429.90400000000005 L 147.44 451.63200000000006 L 148.99200000000002 451.63200000000006 L 148.99200000000002 488.88000000000005 L 116.4 488.88000000000005 Z" stroke = "green" stroke-width = "1" fill = "green" />
<path d = "M263.84000000000003 488.88000000000005L 263.84000000000003 459.39200000000005 L 268.49600000000004 459.39200000000005 L 273.15200000000004 454.73600000000005 L 273.15200000000004 448.528 L 268.49600000000004 443.872 L 259.184 443.872 L 254.52800000000002 448.528 L 254.52800000000002 454.73600000000005 L 259.184 459.39200000000005 L 263.84000000000003 459.39200000000005 L 263.84000000000003 488.88000000000005 L 234.35200000000003 488.88000000000005 L 225.04000000000002 476.46400000000006 L 225.04000000000002 420.59200000000004 L 232.8 411.28000000000003 L 291.776 411.28000000000003 L 302.64000000000004 420.59200000000004 L 302.64000000000004 476.46400000000006 L 302.64000000000004 476.46400000000006 L 291.776 488.88000000000005 L 263.84000000000003 488.88000000000005 Z" stroke = "blue" stroke-width = "1" fill = "blue" />
<path d = "M333.68 411.28000000000003L 406.624 411.28000000000003 L 411.28000000000003 415.93600000000004 L 411.28000000000003 446.97600000000006 L 406.624 451.63200000000006 L 411.28000000000003 456.288 L 411.28000000000003 482.672 L 405.072 488.88000000000005 L 369.37600000000003 488.88000000000005 L 369.37600000000003 474.91200000000003 L 374.03200000000004 474.91200000000003 L 378.688 470.25600000000003 L 374.03200000000004 465.6 L 369.37600000000003 465.6 L 369.37600000000003 437.66400000000004 L 375.584 437.66400000000004 L 380.24 433.00800000000004 L 375.584 428.35200000000003 L 369.37600000000003 428.35200000000003 L 369.37600000000003 488.88000000000005 L 333.68 488.88000000000005 L 333.68 411.28000000000003 Z" stroke = "purple" stroke-width = "1" fill = "purple" />
<path d = "M481.12 488.88000000000005L 481.12 459.39200000000005 L 485.776 459.39200000000005 L 490.432 454.73600000000005 L 490.432 448.528 L 485.776 443.872 L 476.464 443.872 L 471.808 448.528 L 471.808 454.73600000000005 L 476.464 459.39200000000005 L 481.12 459.39200000000005 L 481.12 488.88000000000005 L 451.632 488.88000000000005 L 442.32 476.46400000000006 L 442.32 420.59200000000004 L 450.08 411.28000000000003 L 509.056 411.28000000000003 L 519.92 420.59200000000004 L 519.92 476.46400000000006 L 519.92 476.46400000000006 L 509.056 488.88000000000005 L 481.12 488.88000000000005 Z" stroke = "red" stroke-width = "1" fill = "red" />
<path d = "M550.9600000000002 411.28000000000003L 628.5600000000002 411.28000000000003 L 628.5600000000002 446.97600000000006 L 603.7280000000002 446.97600000000006 L 603.7280000000002 488.88000000000005 L 572.6880000000001 488.88000000000005 L 572.6880000000001 446.97600000000006 L 550.9600000000002 446.97600000000006 L 550.9600000000002 411.28000000000003 Z" stroke = "orange" stroke-width = "1" fill = "orange" />
<path d = "M141.232 636.32L 141.232 616.144 L 161.40800000000002 616.144 L 161.40800000000002 636.32 L 141.232 636.32 Z" stroke = "yellow" stroke-width = "1" fill = "yellow" />
<path d = "M225.04000000000002 636.32L 225.04000000000002 558.72 L 249.872 558.72 L 273.15200000000004 578.8960000000001 L 273.15200000000004 558.72 L 302.64000000000004 558.72 L 302.64000000000004 636.32 L 273.15200000000004 636.32 L 248.32000000000002 617.696 L 248.32000000000002 636.32 L 225.04000000000002 636.32 Z" stroke = "green" stroke-width = "1" fill = "green" />
<path d = "M333.68 636.32L 333.68 558.72 L 411.28000000000003 558.72 L 411.28000000000003 580.448 L 389.552 580.448 L 389.552 589.76 L 411.28000000000003 589.76 L 411.28000000000003 605.28 L 389.552 605.28 L 389.552 616.144 L 411.28000000000003 616.144 L 412.832 636.32 L 333.68 636.32 Z" stroke = "blue" stroke-width = "1" fill = "blue" />
<path d = "M442.32 558.72L 519.92 558.72 L 519.92 594.416 L 495.088 594.416 L 495.088 636.32 L 464.048 636.32 L 464.048 594.416 L 442.32 594.416 L 442.32 558.72 Z" stroke = "purple" stroke-width = "1" fill = "purple" /></svg>