<svg width="776" height="776" viewbox = "0 0 776 776"  xmlns="http://www.w3.org/2000/svg">

<!--<json>[
    {
        "color": "#ff2cb4",
        "x": 0.1,
        "y": 0.15,
        "width": 0.1,
        "character": "W"
    },
    {
        "color": "#ff2cb4",
        "x": 0.22,
        "y": 0.15,
        "width": 0.1,
        "character": "W"
    },
    {
        "color": "#ff2cb4",
        "x": 0.34,
        "y": 0.15,
        "width": 0.1,
        "character": "W"
    },
    {
        "color": "#ff2cb4",
        "x": 0.46,
        "y": 0.15,
        "width": 0.1,
        "character": "."
    },
    {
        "color": "#ff2cb4",
        "x": 0.58,
        "y": 0.15,
        "width": 0.1,
        "character": " "
    },
    {
        "color": "#ff2cb4",
        "x": 0.7,
        "y": 0.15,
        "width": 0.1,
        "character": " "
    },
    {
        "color": "#ff2cb4",
        "x": 0.8200000000000001,
        "y": 0.15,
        "width": 0.1,
        "character": " "
    },
    {
        "color": "#ff2cb4",
        "x": 0.9400000000000001,
        "y": 0.15,
        "width": 0.1,
        "character": " "
    },
    {
        "color": "#ff2cb4",
        "x": 0.1,
        "y": 0.35,
        "width": 0.1,
        "character": "S"
    },
    {
        "color": "#ff2cb4",
        "x": 0.22,
        "y": 0.35,
        "width": 0.1,
        "character": "E"
    },
    {
        "color": "#ff2cb4",
        "x": 0.34,
        "y": 0.35,
        "width": 0.1,
        "character": "A"
    },
    {
        "color": "#ff2cb4",
        "x": 0.46,
        "y": 0.35,
        "width": 0.1,
        "character": "T"
    },
    {
        "color": "#ff2cb4",
        "x": 0.58,
        "y": 0.35,
        "width": 0.1,
        "character": "T"
    },
    {
        "color": "#ff2cb4",
        "x": 0.7,
        "y": 0.35,
        "width": 0.1,
        "character": "L"
    },
    {
        "color": "#ff2cb4",
        "x": 0.8200000000000001,
        "y": 0.35,
        "width": 0.1,
        "character": "E"
    },
    {
        "color": "#ff2cb4",
        "x": 0.9400000000000001,
        "y": 0.35,
        "width": 0.1,
        "character": " "
    },
    {
        "color": "#ff2cb4",
        "x": 0.1,
        "y": 0.55,
        "width": 0.1,
        "character": " "
    },
    {
        "color": "#ff2cb4",
        "x": 0.22,
        "y": 0.55,
        "width": 0.1,
        "character": " "
    },
    {
        "color": "#ff2cb4",
        "x": 0.34,
        "y": 0.55,
        "width": 0.1,
        "character": "."
    },
    {
        "color": "#ff2cb4",
        "x": 0.46,
        "y": 0.55,
        "width": 0.1,
        "character": "P"
    },
    {
        "color": "#ff2cb4",
        "x": 0.58,
        "y": 0.55,
        "width": 0.1,
        "character": "I"
    },
    {
        "color": "#ff2cb4",
        "x": 0.7,
        "y": 0.55,
        "width": 0.1,
        "character": "N"
    },
    {
        "color": "#ff2cb4",
        "x": 0.8200000000000001,
        "y": 0.55,
        "width": 0.1,
        "character": "K"
    }
]</json>-->
<path d = "M 0 0 L776 0 L776 776 L0 776 L0 0 Z" stroke = "black" stroke-width = "1" fill = "black" />
<path d = "M38.800000000000004 77.6L 62.080000000000005 77.6 L 69.84 93.12 L 77.60000000000001 77.6 L 83.808 93.12 L 91.56800000000001 77.6 L 116.4 77.6 L 85.36000000000001 155.2 L 79.15200000000002 142.784 L 71.39200000000001 155.2 L 38.800000000000004 77.6 Z" stroke = "#ff2cb4" stroke-width = "1" fill = "#ff2cb4" />
<path d = "M131.92 77.6L 155.2 77.6 L 162.95999999999998 93.12 L 170.72 77.6 L 176.928 93.12 L 184.688 77.6 L 209.51999999999998 77.6 L 178.48 155.2 L 172.272 142.784 L 164.512 155.2 L 131.92 77.6 Z" stroke = "#ff2cb4" stroke-width = "1" fill = "#ff2cb4" />
<path d = "M225.04000000000002 77.6L 248.32000000000002 77.6 L 256.08000000000004 93.12 L 263.84000000000003 77.6 L 270.048 93.12 L 277.80800000000005 77.6 L 302.64000000000004 77.6 L 271.6 155.2 L 265.39200000000005 142.784 L 257.632 155.2 L 225.04000000000002 77.6 Z" stroke = "#ff2cb4" stroke-width = "1" fill = "#ff2cb4" />
<path d = "M342.992 155.2L 342.992 135.024 L 363.168 135.024 L 363.168 155.2 L 342.992 155.2 Z" stroke = "#ff2cb4" stroke-width = "1" fill = "#ff2cb4" />
<path d = "M65.18400000000001 310.4L 48.11200000000001 310.4 L 38.800000000000004 297.984 L 38.800000000000004 284.01599999999996 L 46.56 284.01599999999996 L 52.76800000000001 291.77599999999995 L 57.42400000000001 296.43199999999996 L 71.39200000000001 296.43199999999996 L 82.25600000000001 296.43199999999996 L 91.56800000000001 290.22399999999993 L 93.12000000000002 280.912 L 80.70400000000001 271.59999999999997 L 63.632000000000005 265.39199999999994 L 49.66400000000001 260.73599999999993 L 43.456 252.97599999999994 L 40.352000000000004 246.76799999999994 L 38.800000000000004 242.11199999999997 L 41.904 235.90399999999997 L 46.56 234.35199999999995 L 57.42400000000001 232.79999999999995 L 76.048 232.79999999999995 L 90.01600000000002 232.79999999999995 L 97.77600000000001 235.90399999999997 L 110.19200000000001 240.55999999999995 L 113.29600000000002 246.76799999999994 L 116.4 252.97599999999994 L 105.536 259.18399999999997 L 93.12000000000002 249.87199999999996 L 74.49600000000001 246.76799999999994 L 65.18400000000001 248.31999999999996 L 71.39200000000001 252.97599999999994 L 90.01600000000002 259.18399999999997 L 103.98400000000001 266.94399999999996 L 108.64000000000001 277.80799999999994 L 110.19200000000001 293.328 L 102.43200000000002 301.08799999999997 L 90.01600000000002 310.4 L 65.18400000000001 310.4 Z" stroke = "#ff2cb4" stroke-width = "1" fill = "#ff2cb4" />
<path d = "M131.92 310.4L 131.92 232.79999999999995 L 209.51999999999998 232.79999999999995 L 209.51999999999998 254.52799999999996 L 187.792 254.52799999999996 L 187.792 263.84 L 209.51999999999998 263.84 L 209.51999999999998 279.35999999999996 L 187.792 279.35999999999996 L 187.792 290.22399999999993 L 209.51999999999998 290.22399999999993 L 211.072 310.4 L 131.92 310.4 Z" stroke = "#ff2cb4" stroke-width = "1" fill = "#ff2cb4" />
<path d = "M225.04000000000002 310.4L 240.56000000000003 232.79999999999995 L 287.12 231.24799999999996 L 302.64000000000004 310.4 L 277.80800000000005 310.4 L 265.39200000000005 248.31999999999996 L 259.184 276.256 L 273.15200000000004 276.256 L 276.25600000000003 294.88 L 256.08000000000004 294.88 L 251.42400000000004 310.4 L 225.04000000000002 310.4 Z" stroke = "#ff2cb4" stroke-width = "1" fill = "#ff2cb4" />
<path d = "M318.16 232.79999999999995L 395.76000000000005 232.79999999999995 L 395.76000000000005 268.496 L 370.92800000000005 268.496 L 370.92800000000005 310.4 L 339.88800000000003 310.4 L 339.88800000000003 268.496 L 318.16 268.496 L 318.16 232.79999999999995 Z" stroke = "#ff2cb4" stroke-width = "1" fill = "#ff2cb4" />
<path d = "M411.28 232.79999999999995L 488.88 232.79999999999995 L 488.88 268.496 L 464.048 268.496 L 464.048 310.4 L 433.008 310.4 L 433.008 268.496 L 411.28 268.496 L 411.28 232.79999999999995 Z" stroke = "#ff2cb4" stroke-width = "1" fill = "#ff2cb4" />
<path d = "M504.3999999999999 310.4L 504.3999999999999 232.79999999999995 L 543.1999999999999 232.79999999999995 L 543.1999999999999 273.15199999999993 L 581.9999999999999 273.15199999999993 L 581.9999999999999 310.4 L 504.3999999999999 310.4 Z" stroke = "#ff2cb4" stroke-width = "1" fill = "#ff2cb4" />
<path d = "M597.5200000000001 310.4L 597.5200000000001 232.79999999999995 L 675.1200000000001 232.79999999999995 L 675.1200000000001 254.52799999999996 L 653.392 254.52799999999996 L 653.392 263.84 L 675.1200000000001 263.84 L 675.1200000000001 279.35999999999996 L 653.392 279.35999999999996 L 653.392 290.22399999999993 L 675.1200000000001 290.22399999999993 L 676.6720000000001 310.4 L 597.5200000000001 310.4 Z" stroke = "#ff2cb4" stroke-width = "1" fill = "#ff2cb4" />
<path d = "M249.872 465.6L 249.872 445.424 L 270.048 445.424 L 270.048 465.6 L 249.872 465.6 Z" stroke = "#ff2cb4" stroke-width = "1" fill = "#ff2cb4" />
<path d = "M318.16 465.6L 318.16 388 L 383.34400000000005 388 L 395.76000000000005 398.864 L 395.76000000000005 428.352 L 383.34400000000005 439.216 L 355.408 439.216 L 355.408 465.6 L 347.648 465.6 L 347.648 420.592 L 356.96000000000004 420.592 L 363.168 414.384 L 356.96000000000004 408.176 L 347.648 408.176 L 347.648 465.6 L 318.16 465.6 Z" stroke = "#ff2cb4" stroke-width = "1" fill = "#ff2cb4" />
<path d = "M411.28 465.6L 411.28 443.872 L 426.79999999999995 443.872 L 426.79999999999995 411.28 L 411.28 411.28 L 411.28 388 L 488.88 388 L 488.88 411.28 L 470.256 411.28 L 470.256 443.872 L 488.88 443.872 L 488.88 465.6 L 411.28 465.6 Z" stroke = "#ff2cb4" stroke-width = "1" fill = "#ff2cb4" />
<path d = "M504.3999999999999 465.6L 504.3999999999999 388 L 529.232 388 L 552.512 408.176 L 552.512 388 L 581.9999999999999 388 L 581.9999999999999 465.6 L 552.512 465.6 L 527.68 446.976 L 527.68 465.6 L 504.3999999999999 465.6 Z" stroke = "#ff2cb4" stroke-width = "1" fill = "#ff2cb4" />
<path d = "M597.5200000000001 465.6L 597.5200000000001 388 L 634.7680000000001 388 L 634.7680000000001 406.624 L 651.8400000000001 388 L 675.1200000000001 388 L 676.6720000000001 412.832 L 659.6000000000001 429.904 L 675.1200000000001 443.872 L 675.1200000000001 465.6 L 653.392 465.6 L 634.7680000000001 446.976 L 634.7680000000001 465.6 L 597.5200000000001 465.6 Z" stroke = "#ff2cb4" stroke-width = "1" fill = "#ff2cb4" /></svg>