<svg width="776" height="776" viewbox = "0 0 776 776"  xmlns="http://www.w3.org/2000/svg">

<!--<json>{
    "text": "WWW.    TRASH   ROBOT   .NET",
    "left_margin": 0.15,
    "top_margin": 0.15,
    "horizontal_gap": 0.04,
    "vertical_gap": 0.05,
    "number_of_columns": 8,
    "rainbow": true
}</json>-->
<path d = "M 0 0 L776 0 L776 776 L0 776 L0 0 Z" stroke = "black" stroke-width = "1" fill = "black" />
<path d = "M116.4 116.4L 139.68 116.4 L 147.44 131.92000000000002 L 155.20000000000002 116.4 L 161.40800000000002 131.92000000000002 L 169.168 116.4 L 194 116.4 L 162.96 194 L 156.752 181.584 L 148.99200000000002 194 L 116.4 116.4 Z" stroke = "red" stroke-width = "1" fill = "red" />
<path d = "M225.04000000000002 116.4L 248.32000000000002 116.4 L 256.08000000000004 131.92000000000002 L 263.84000000000003 116.4 L 270.048 131.92000000000002 L 277.80800000000005 116.4 L 302.64000000000004 116.4 L 271.6 194 L 265.39200000000005 181.584 L 257.632 194 L 225.04000000000002 116.4 Z" stroke = "orange" stroke-width = "1" fill = "orange" />
<path d = "M333.68 116.4L 356.96000000000004 116.4 L 364.72 131.92000000000002 L 372.48 116.4 L 378.688 131.92000000000002 L 386.44800000000004 116.4 L 411.28000000000003 116.4 L 380.24 194 L 374.03200000000004 181.584 L 366.272 194 L 333.68 116.4 Z" stroke = "yellow" stroke-width = "1" fill = "yellow" />
<path d = "M467.152 194L 467.152 173.824 L 487.328 173.824 L 487.328 194 L 467.152 194 Z" stroke = "green" stroke-width = "1" fill = "green" />
<path d = "M116.4 232.8L 194 232.8 L 194 268.49600000000004 L 169.168 268.49600000000004 L 169.168 310.40000000000003 L 138.12800000000001 310.40000000000003 L 138.12800000000001 268.49600000000004 L 116.4 268.49600000000004 L 116.4 232.8 Z" stroke = "blue" stroke-width = "1" fill = "blue" />
<path d = "M225.04000000000002 310.40000000000003L 225.04000000000002 232.8 L 285.56800000000004 232.8 L 302.64000000000004 248.32000000000002 L 304.192 279.36 L 288.672 288.672 L 302.64000000000004 310.40000000000003 L 271.6 310.40000000000003 L 262.288 294.88 L 262.288 310.40000000000003 L 257.632 310.40000000000003 L 257.632 273.15200000000004 L 270.048 273.15200000000004 L 279.36 262.288 L 271.6 251.424 L 256.08000000000004 251.424 L 256.08000000000004 273.15200000000004 L 257.632 273.15200000000004 L 257.632 310.40000000000003 L 225.04000000000002 310.40000000000003 Z" stroke = "purple" stroke-width = "1" fill = "purple" />
<path d = "M333.68 310.40000000000003L 349.2 232.8 L 395.76 231.24800000000002 L 411.28000000000003 310.40000000000003 L 386.44800000000004 310.40000000000003 L 374.03200000000004 248.32000000000002 L 367.824 276.25600000000003 L 381.79200000000003 276.25600000000003 L 384.896 294.88 L 364.72 294.88 L 360.064 310.40000000000003 L 333.68 310.40000000000003 Z" stroke = "red" stroke-width = "1" fill = "red" />
<path d = "M468.704 310.40000000000003L 451.632 310.40000000000003 L 442.32 297.98400000000004 L 442.32 284.016 L 450.08 284.016 L 456.288 291.776 L 460.944 296.432 L 474.912 296.432 L 485.776 296.432 L 495.088 290.22400000000005 L 496.64 280.91200000000003 L 484.224 271.6 L 467.152 265.392 L 453.18399999999997 260.736 L 446.976 252.976 L 443.872 246.768 L 442.32 242.11200000000002 L 445.424 235.90400000000002 L 450.08 234.352 L 460.944 232.8 L 479.568 232.8 L 493.536 232.8 L 501.296 235.90400000000002 L 513.712 240.56 L 516.816 246.768 L 519.92 252.976 L 509.056 259.184 L 496.64 249.872 L 478.016 246.768 L 468.704 248.32000000000002 L 474.912 252.976 L 493.536 259.184 L 507.504 266.944 L 512.16 277.808 L 513.712 293.32800000000003 L 505.952 301.088 L 493.536 310.40000000000003 L 468.704 310.40000000000003 Z" stroke = "orange" stroke-width = "1" fill = "orange" />
<path d = "M550.9600000000002 310.40000000000003L 550.9600000000002 232.8 L 577.3440000000002 232.8 L 577.3440000000002 248.32000000000002 L 600.6240000000001 248.32000000000002 L 600.6240000000001 232.8 L 628.5600000000002 232.8 L 628.5600000000002 310.40000000000003 L 602.1760000000002 310.40000000000003 L 602.1760000000002 291.776 L 577.3440000000002 291.776 L 577.3440000000002 310.40000000000003 L 550.9600000000002 310.40000000000003 Z" stroke = "yellow" stroke-width = "1" fill = "yellow" />
<path d = "M116.4 426.8L 116.4 349.2 L 176.928 349.2 L 194 364.71999999999997 L 195.55200000000002 395.76 L 180.032 405.072 L 194 426.8 L 162.96 426.8 L 153.64800000000002 411.28 L 153.64800000000002 426.8 L 148.99200000000002 426.8 L 148.99200000000002 389.552 L 161.40800000000002 389.552 L 170.72000000000003 378.688 L 162.96 367.824 L 147.44 367.824 L 147.44 389.552 L 148.99200000000002 389.552 L 148.99200000000002 426.8 L 116.4 426.8 Z" stroke = "green" stroke-width = "1" fill = "green" />
<path d = "M263.84000000000003 426.8L 263.84000000000003 397.312 L 268.49600000000004 397.312 L 273.15200000000004 392.656 L 273.15200000000004 386.448 L 268.49600000000004 381.792 L 259.184 381.792 L 254.52800000000002 386.448 L 254.52800000000002 392.656 L 259.184 397.312 L 263.84000000000003 397.312 L 263.84000000000003 426.8 L 234.35200000000003 426.8 L 225.04000000000002 414.384 L 225.04000000000002 358.512 L 232.8 349.2 L 291.776 349.2 L 302.64000000000004 358.512 L 302.64000000000004 414.384 L 302.64000000000004 414.384 L 291.776 426.8 L 263.84000000000003 426.8 Z" stroke = "blue" stroke-width = "1" fill = "blue" />
<path d = "M333.68 349.2L 406.624 349.2 L 411.28000000000003 353.856 L 411.28000000000003 384.896 L 406.624 389.552 L 411.28000000000003 394.20799999999997 L 411.28000000000003 420.592 L 405.072 426.8 L 369.37600000000003 426.8 L 369.37600000000003 412.832 L 374.03200000000004 412.832 L 378.688 408.176 L 374.03200000000004 403.52 L 369.37600000000003 403.52 L 369.37600000000003 375.584 L 375.584 375.584 L 380.24 370.928 L 375.584 366.272 L 369.37600000000003 366.272 L 369.37600000000003 426.8 L 333.68 426.8 L 333.68 349.2 Z" stroke = "purple" stroke-width = "1" fill = "purple" />
<path d = "M481.12 426.8L 481.12 397.312 L 485.776 397.312 L 490.432 392.656 L 490.432 386.448 L 485.776 381.792 L 476.464 381.792 L 471.808 386.448 L 471.808 392.656 L 476.464 397.312 L 481.12 397.312 L 481.12 426.8 L 451.632 426.8 L 442.32 414.384 L 442.32 358.512 L 450.08 349.2 L 509.056 349.2 L 519.92 358.512 L 519.92 414.384 L 519.92 414.384 L 509.056 426.8 L 481.12 426.8 Z" stroke = "red" stroke-width = "1" fill = "red" />
<path d = "M550.9600000000002 349.2L 628.5600000000002 349.2 L 628.5600000000002 384.896 L 603.7280000000002 384.896 L 603.7280000000002 426.8 L 572.6880000000001 426.8 L 572.6880000000001 384.896 L 550.9600000000002 384.896 L 550.9600000000002 349.2 Z" stroke = "orange" stroke-width = "1" fill = "orange" />
<path d = "M141.232 543.2L 141.232 523.024 L 161.40800000000002 523.024 L 161.40800000000002 543.2 L 141.232 543.2 Z" stroke = "yellow" stroke-width = "1" fill = "yellow" />
<path d = "M225.04000000000002 543.2L 225.04000000000002 465.6 L 249.872 465.6 L 273.15200000000004 485.776 L 273.15200000000004 465.6 L 302.64000000000004 465.6 L 302.64000000000004 543.2 L 273.15200000000004 543.2 L 248.32000000000002 524.576 L 248.32000000000002 543.2 L 225.04000000000002 543.2 Z" stroke = "green" stroke-width = "1" fill = "green" />
<path d = "M333.68 543.2L 333.68 465.6 L 411.28000000000003 465.6 L 411.28000000000003 487.32800000000003 L 389.552 487.32800000000003 L 389.552 496.64000000000004 L 411.28000000000003 496.64000000000004 L 411.28000000000003 512.1600000000001 L 389.552 512.1600000000001 L 389.552 523.024 L 411.28000000000003 523.024 L 412.832 543.2 L 333.68 543.2 Z" stroke = "blue" stroke-width = "1" fill = "blue" />
<path d = "M442.32 465.6L 519.92 465.6 L 519.92 501.29600000000005 L 495.088 501.29600000000005 L 495.088 543.2 L 464.048 543.2 L 464.048 501.29600000000005 L 442.32 501.29600000000005 L 442.32 465.6 Z" stroke = "purple" stroke-width = "1" fill = "purple" /></svg>