<svg width="826" height="826" viewbox = "0 0 826 826"  xmlns="http://www.w3.org/2000/svg">

<!--<json>[
    {
        "color": "#ff2cb4",
        "x": 0.1,
        "y": 0.15,
        "width": 0.1,
        "character": "W"
    },
    {
        "color": "#ff2cb4",
        "x": 0.22,
        "y": 0.15,
        "width": 0.1,
        "character": "W"
    },
    {
        "color": "#ff2cb4",
        "x": 0.34,
        "y": 0.15,
        "width": 0.1,
        "character": "W"
    },
    {
        "color": "#ff2cb4",
        "x": 0.46,
        "y": 0.15,
        "width": 0.1,
        "character": "."
    },
    {
        "color": "#ff2cb4",
        "x": 0.58,
        "y": 0.15,
        "width": 0.1,
        "character": " "
    },
    {
        "color": "#ff2cb4",
        "x": 0.7,
        "y": 0.15,
        "width": 0.1,
        "character": " "
    },
    {
        "color": "#ff2cb4",
        "x": 0.8200000000000001,
        "y": 0.15,
        "width": 0.1,
        "character": " "
    },
    {
        "color": "#ff2cb4",
        "x": 0.9400000000000001,
        "y": 0.15,
        "width": 0.1,
        "character": " "
    },
    {
        "color": "#ff2cb4",
        "x": 0.1,
        "y": 0.35,
        "width": 0.1,
        "character": "S"
    },
    {
        "color": "#ff2cb4",
        "x": 0.22,
        "y": 0.35,
        "width": 0.1,
        "character": "E"
    },
    {
        "color": "#ff2cb4",
        "x": 0.34,
        "y": 0.35,
        "width": 0.1,
        "character": "A"
    },
    {
        "color": "#ff2cb4",
        "x": 0.46,
        "y": 0.35,
        "width": 0.1,
        "character": "T"
    },
    {
        "color": "#ff2cb4",
        "x": 0.58,
        "y": 0.35,
        "width": 0.1,
        "character": "T"
    },
    {
        "color": "#ff2cb4",
        "x": 0.7,
        "y": 0.35,
        "width": 0.1,
        "character": "L"
    },
    {
        "color": "#ff2cb4",
        "x": 0.8200000000000001,
        "y": 0.35,
        "width": 0.1,
        "character": "E"
    },
    {
        "color": "#ff2cb4",
        "x": 0.9400000000000001,
        "y": 0.35,
        "width": 0.1,
        "character": " "
    },
    {
        "color": "#ff2cb4",
        "x": 0.1,
        "y": 0.55,
        "width": 0.1,
        "character": " "
    },
    {
        "color": "#ff2cb4",
        "x": 0.22,
        "y": 0.55,
        "width": 0.1,
        "character": " "
    },
    {
        "color": "#ff2cb4",
        "x": 0.34,
        "y": 0.55,
        "width": 0.1,
        "character": "."
    },
    {
        "color": "#ff2cb4",
        "x": 0.46,
        "y": 0.55,
        "width": 0.1,
        "character": "P"
    },
    {
        "color": "#ff2cb4",
        "x": 0.58,
        "y": 0.55,
        "width": 0.1,
        "character": "I"
    },
    {
        "color": "#ff2cb4",
        "x": 0.7,
        "y": 0.55,
        "width": 0.1,
        "character": "N"
    },
    {
        "color": "#ff2cb4",
        "x": 0.8200000000000001,
        "y": 0.55,
        "width": 0.1,
        "character": "K"
    }
]</json>-->
<path d = "M 0 0 L826 0 L826 826 L0 826 L0 0 Z" stroke = "black" stroke-width = "1" fill = "black" />
<path d = "M41.300000000000004 82.6L 66.08000000000001 82.6 L 74.34 99.12 L 82.60000000000001 82.6 L 89.208 99.12 L 97.46800000000002 82.6 L 123.9 82.6 L 90.86000000000001 165.2 L 84.25200000000001 151.98399999999998 L 75.992 165.2 L 41.300000000000004 82.6 Z" stroke = "#ff2cb4" stroke-width = "1" fill = "#ff2cb4" />
<path d = "M140.42 82.6L 165.2 82.6 L 173.45999999999998 99.12 L 181.72 82.6 L 188.32799999999997 99.12 L 196.588 82.6 L 223.01999999999998 82.6 L 189.98 165.2 L 183.37199999999999 151.98399999999998 L 175.112 165.2 L 140.42 82.6 Z" stroke = "#ff2cb4" stroke-width = "1" fill = "#ff2cb4" />
<path d = "M239.54000000000002 82.6L 264.32000000000005 82.6 L 272.58000000000004 99.12 L 280.84000000000003 82.6 L 287.44800000000004 99.12 L 295.708 82.6 L 322.14000000000004 82.6 L 289.1 165.2 L 282.492 151.98399999999998 L 274.232 165.2 L 239.54000000000002 82.6 Z" stroke = "#ff2cb4" stroke-width = "1" fill = "#ff2cb4" />
<path d = "M365.09200000000004 165.2L 365.09200000000004 143.724 L 386.56800000000004 143.724 L 386.56800000000004 165.2 L 365.09200000000004 165.2 Z" stroke = "#ff2cb4" stroke-width = "1" fill = "#ff2cb4" />
<path d = "M69.38400000000001 330.4L 51.212 330.4 L 41.300000000000004 317.18399999999997 L 41.300000000000004 302.316 L 49.56 302.316 L 56.168000000000006 310.57599999999996 L 61.12400000000001 315.532 L 75.992 315.532 L 87.55600000000001 315.532 L 97.46800000000002 308.924 L 99.12000000000002 299.01199999999994 L 85.90400000000001 289.09999999999997 L 67.732 282.49199999999996 L 52.864000000000004 277.53599999999994 L 46.25600000000001 269.27599999999995 L 42.952000000000005 262.66799999999995 L 41.300000000000004 257.71199999999993 L 44.604000000000006 251.10399999999996 L 49.56 249.45199999999994 L 61.12400000000001 247.79999999999995 L 80.94800000000001 247.79999999999995 L 95.816 247.79999999999995 L 104.07600000000002 251.10399999999996 L 117.292 256.05999999999995 L 120.596 262.66799999999995 L 123.9 269.27599999999995 L 112.33600000000001 275.88399999999996 L 99.12000000000002 265.972 L 79.296 262.66799999999995 L 69.38400000000001 264.31999999999994 L 75.992 269.27599999999995 L 95.816 275.88399999999996 L 110.684 284.14399999999995 L 115.64000000000001 295.70799999999997 L 117.292 312.22799999999995 L 109.03200000000001 320.48799999999994 L 95.816 330.4 L 69.38400000000001 330.4 Z" stroke = "#ff2cb4" stroke-width = "1" fill = "#ff2cb4" />
<path d = "M140.42 330.4L 140.42 247.79999999999995 L 223.01999999999998 247.79999999999995 L 223.01999999999998 270.92799999999994 L 199.892 270.92799999999994 L 199.892 280.84 L 223.01999999999998 280.84 L 223.01999999999998 297.35999999999996 L 199.892 297.35999999999996 L 199.892 308.924 L 223.01999999999998 308.924 L 224.672 330.4 L 140.42 330.4 Z" stroke = "#ff2cb4" stroke-width = "1" fill = "#ff2cb4" />
<path d = "M239.54000000000002 330.4L 256.06 247.79999999999995 L 305.62 246.14799999999997 L 322.14000000000004 330.4 L 295.708 330.4 L 282.492 264.31999999999994 L 275.884 294.056 L 290.752 294.056 L 294.05600000000004 313.88 L 272.58000000000004 313.88 L 267.624 330.4 L 239.54000000000002 330.4 Z" stroke = "#ff2cb4" stroke-width = "1" fill = "#ff2cb4" />
<path d = "M338.66 247.79999999999995L 421.26000000000005 247.79999999999995 L 421.26000000000005 285.79599999999994 L 394.82800000000003 285.79599999999994 L 394.82800000000003 330.4 L 361.788 330.4 L 361.788 285.79599999999994 L 338.66 285.79599999999994 L 338.66 247.79999999999995 Z" stroke = "#ff2cb4" stroke-width = "1" fill = "#ff2cb4" />
<path d = "M437.78 247.79999999999995L 520.38 247.79999999999995 L 520.38 285.79599999999994 L 493.948 285.79599999999994 L 493.948 330.4 L 460.90799999999996 330.4 L 460.90799999999996 285.79599999999994 L 437.78 285.79599999999994 L 437.78 247.79999999999995 Z" stroke = "#ff2cb4" stroke-width = "1" fill = "#ff2cb4" />
<path d = "M536.9 330.4L 536.9 247.79999999999995 L 578.1999999999999 247.79999999999995 L 578.1999999999999 290.75199999999995 L 619.5 290.75199999999995 L 619.5 330.4 L 536.9 330.4 Z" stroke = "#ff2cb4" stroke-width = "1" fill = "#ff2cb4" />
<path d = "M636.0200000000001 330.4L 636.0200000000001 247.79999999999995 L 718.6200000000001 247.79999999999995 L 718.6200000000001 270.92799999999994 L 695.4920000000001 270.92799999999994 L 695.4920000000001 280.84 L 718.6200000000001 280.84 L 718.6200000000001 297.35999999999996 L 695.4920000000001 297.35999999999996 L 695.4920000000001 308.924 L 718.6200000000001 308.924 L 720.2720000000002 330.4 L 636.0200000000001 330.4 Z" stroke = "#ff2cb4" stroke-width = "1" fill = "#ff2cb4" />
<path d = "M265.97200000000004 495.6L 265.97200000000004 474.124 L 287.44800000000004 474.124 L 287.44800000000004 495.6 L 265.97200000000004 495.6 Z" stroke = "#ff2cb4" stroke-width = "1" fill = "#ff2cb4" />
<path d = "M338.66 495.6L 338.66 413 L 408.04400000000004 413 L 421.26000000000005 424.564 L 421.26000000000005 455.952 L 408.04400000000004 467.516 L 378.30800000000005 467.516 L 378.30800000000005 495.6 L 370.048 495.6 L 370.048 447.692 L 379.96000000000004 447.692 L 386.56800000000004 441.084 L 379.96000000000004 434.476 L 370.048 434.476 L 370.048 495.6 L 338.66 495.6 Z" stroke = "#ff2cb4" stroke-width = "1" fill = "#ff2cb4" />
<path d = "M437.78 495.6L 437.78 472.472 L 454.29999999999995 472.472 L 454.29999999999995 437.78 L 437.78 437.78 L 437.78 413 L 520.38 413 L 520.38 437.78 L 500.556 437.78 L 500.556 472.472 L 520.38 472.472 L 520.38 495.6 L 437.78 495.6 Z" stroke = "#ff2cb4" stroke-width = "1" fill = "#ff2cb4" />
<path d = "M536.9 495.6L 536.9 413 L 563.332 413 L 588.112 434.476 L 588.112 413 L 619.5 413 L 619.5 495.6 L 588.112 495.6 L 561.68 475.776 L 561.68 495.6 L 536.9 495.6 Z" stroke = "#ff2cb4" stroke-width = "1" fill = "#ff2cb4" />
<path d = "M636.0200000000001 495.6L 636.0200000000001 413 L 675.6680000000001 413 L 675.6680000000001 432.824 L 693.8400000000001 413 L 718.6200000000001 413 L 720.2720000000002 439.432 L 702.1000000000001 457.604 L 718.6200000000001 472.472 L 718.6200000000001 495.6 L 695.4920000000001 495.6 L 675.6680000000001 475.776 L 675.6680000000001 495.6 L 636.0200000000001 495.6 Z" stroke = "#ff2cb4" stroke-width = "1" fill = "#ff2cb4" /></svg>