<svg width="438" height="438" viewbox = "0 0 438 438"  xmlns="http://www.w3.org/2000/svg">

<!--<json>[
    {
        "color": "red",
        "x": 0.07,
        "y": 0.2,
        "width": 0.1,
        "character": "I"
    },
    {
        "color": "orange",
        "x": 0.195,
        "y": 0.2,
        "width": 0.1,
        "character": "T"
    },
    {
        "color": "yellow",
        "x": 0.32,
        "y": 0.2,
        "width": 0.1,
        "character": "'"
    },
    {
        "color": "green",
        "x": 0.44500000000000006,
        "y": 0.2,
        "width": 0.1,
        "character": "S"
    },
    {
        "color": "#ff2cb4",
        "x": 0.5700000000000001,
        "y": 0.2,
        "width": 0.1,
        "character": " "
    },
    {
        "color": "#ff2cb4",
        "x": 0.6950000000000001,
        "y": 0.2,
        "width": 0.1,
        "character": " "
    },
    {
        "color": "#ff2cb4",
        "x": 0.8200000000000002,
        "y": 0.2,
        "width": 0.1,
        "character": " "
    },
    {
        "color": "#ff2cb4",
        "x": 0.9450000000000001,
        "y": 0.2,
        "width": 0.1,
        "character": " "
    },
    {
        "color": "blue",
        "x": 0.07,
        "y": 0.4,
        "width": 0.1,
        "character": "R"
    },
    {
        "color": "purple",
        "x": 0.195,
        "y": 0.4,
        "width": 0.1,
        "character": "I"
    },
    {
        "color": "red",
        "x": 0.32,
        "y": 0.4,
        "width": 0.1,
        "character": "G"
    },
    {
        "color": "orange",
        "x": 0.44500000000000006,
        "y": 0.4,
        "width": 0.1,
        "character": "H"
    },
    {
        "color": "yellow",
        "x": 0.5700000000000001,
        "y": 0.4,
        "width": 0.1,
        "character": "T"
    },
    {
        "color": "#ff2cb4",
        "x": 0.6950000000000001,
        "y": 0.4,
        "width": 0.1,
        "character": " "
    },
    {
        "color": "#ff2cb4",
        "x": 0.8200000000000002,
        "y": 0.4,
        "width": 0.1,
        "character": " "
    },
    {
        "color": "#ff2cb4",
        "x": 0.9450000000000001,
        "y": 0.4,
        "width": 0.1,
        "character": " "
    },
    {
        "color": "#ff2cb4",
        "x": 0.07,
        "y": 0.6000000000000001,
        "width": 0.1,
        "character": " "
    },
    {
        "color": "green",
        "x": 0.195,
        "y": 0.6000000000000001,
        "width": 0.1,
        "character": "T"
    },
    {
        "color": "blue",
        "x": 0.32,
        "y": 0.6000000000000001,
        "width": 0.1,
        "character": "O"
    },
    {
        "color": "#ff2cb4",
        "x": 0.44500000000000006,
        "y": 0.6000000000000001,
        "width": 0.1,
        "character": " "
    },
    {
        "color": "#ff2cb4",
        "x": 0.5700000000000001,
        "y": 0.6000000000000001,
        "width": 0.1,
        "character": " "
    },
    {
        "color": "#ff2cb4",
        "x": 0.6950000000000001,
        "y": 0.6000000000000001,
        "width": 0.1,
        "character": " "
    },
    {
        "color": "#ff2cb4",
        "x": 0.8200000000000002,
        "y": 0.6000000000000001,
        "width": 0.1,
        "character": " "
    },
    {
        "color": "#ff2cb4",
        "x": 0.9450000000000001,
        "y": 0.6000000000000001,
        "width": 0.1,
        "character": " "
    },
    {
        "color": "#ff2cb4",
        "x": 0.07,
        "y": 0.8,
        "width": 0.1,
        "character": " "
    },
    {
        "color": "#ff2cb4",
        "x": 0.195,
        "y": 0.8,
        "width": 0.1,
        "character": " "
    },
    {
        "color": "purple",
        "x": 0.32,
        "y": 0.8,
        "width": 0.1,
        "character": "R"
    },
    {
        "color": "red",
        "x": 0.44500000000000006,
        "y": 0.8,
        "width": 0.1,
        "character": "E"
    },
    {
        "color": "orange",
        "x": 0.5700000000000001,
        "y": 0.8,
        "width": 0.1,
        "character": "B"
    },
    {
        "color": "yellow",
        "x": 0.6950000000000001,
        "y": 0.8,
        "width": 0.1,
        "character": "E"
    },
    {
        "color": "green",
        "x": 0.8200000000000002,
        "y": 0.8,
        "width": 0.1,
        "character": "L"
    }
]</json>-->
<path d = "M 0 0 L438 0 L438 438 L0 438 L0 0 Z" stroke = "black" stroke-width = "1" fill = "black" />
<path d = "M8.760000000000002 109.5L 8.760000000000002 97.236 L 17.520000000000003 97.236 L 17.520000000000003 78.84 L 8.760000000000002 78.84 L 8.760000000000002 65.7 L 52.56 65.7 L 52.56 78.84 L 42.048 78.84 L 42.048 97.236 L 52.56 97.236 L 52.56 109.5 L 8.760000000000002 109.5 Z" stroke = "red" stroke-width = "1" fill = "red" />
<path d = "M63.50999999999999 65.7L 107.31 65.7 L 107.31 85.84800000000001 L 93.294 85.84800000000001 L 93.294 109.5 L 75.774 109.5 L 75.774 85.84800000000001 L 63.50999999999999 85.84800000000001 L 63.50999999999999 65.7 Z" stroke = "orange" stroke-width = "1" fill = "orange" />
<path d = "M137.53199999999998 65.7L 133.152 77.08800000000001 L 142.788 77.08800000000001 L 148.04399999999998 65.7 L 137.53199999999998 65.7 Z" stroke = "yellow" stroke-width = "1" fill = "yellow" />
<path d = "M187.90200000000002 109.5L 178.26600000000002 109.5 L 173.01000000000002 102.492 L 173.01000000000002 94.608 L 177.39000000000001 94.608 L 180.894 98.988 L 183.52200000000002 101.61600000000001 L 191.406 101.61600000000001 L 197.538 101.61600000000001 L 202.79400000000004 98.11200000000001 L 203.67000000000002 92.85600000000001 L 196.66200000000003 87.60000000000001 L 187.026 84.096 L 179.14200000000002 81.468 L 175.63800000000003 77.08800000000001 L 173.88600000000002 73.584 L 173.01000000000002 70.956 L 174.76200000000003 67.452 L 177.39000000000001 66.57600000000001 L 183.52200000000002 65.7 L 194.03400000000002 65.7 L 201.91800000000003 65.7 L 206.29800000000003 67.452 L 213.30600000000004 70.08 L 215.05800000000002 73.584 L 216.81000000000003 77.08800000000001 L 210.67800000000003 80.59200000000001 L 203.67000000000002 75.336 L 193.15800000000002 73.584 L 187.90200000000002 74.46000000000001 L 191.406 77.08800000000001 L 201.91800000000003 80.59200000000001 L 209.80200000000002 84.97200000000001 L 212.43 91.104 L 213.30600000000004 99.864 L 208.92600000000002 104.244 L 201.91800000000003 109.5 L 187.90200000000002 109.5 Z" stroke = "green" stroke-width = "1" fill = "green" />
<path d = "M8.760000000000002 197.10000000000002L 8.760000000000002 153.3 L 42.92400000000001 153.3 L 52.56 162.06 L 53.43600000000001 179.58 L 44.676 184.836 L 52.56 197.10000000000002 L 35.040000000000006 197.10000000000002 L 29.784000000000002 188.34000000000003 L 29.784000000000002 197.10000000000002 L 27.156000000000002 197.10000000000002 L 27.156000000000002 176.07600000000002 L 34.164 176.07600000000002 L 39.42000000000001 169.94400000000002 L 35.040000000000006 163.812 L 26.280000000000005 163.812 L 26.280000000000005 176.07600000000002 L 27.156000000000002 176.07600000000002 L 27.156000000000002 197.10000000000002 L 8.760000000000002 197.10000000000002 Z" stroke = "blue" stroke-width = "1" fill = "blue" />
<path d = "M63.50999999999999 197.10000000000002L 63.50999999999999 184.836 L 72.27 184.836 L 72.27 166.44 L 63.50999999999999 166.44 L 63.50999999999999 153.3 L 107.31 153.3 L 107.31 166.44 L 96.798 166.44 L 96.798 184.836 L 107.31 184.836 L 107.31 197.10000000000002 L 63.50999999999999 197.10000000000002 Z" stroke = "purple" stroke-width = "1" fill = "purple" />
<path d = "M140.16 197.10000000000002L 145.416 197.10000000000002 L 150.672 190.96800000000002 L 150.672 197.10000000000002 L 162.06 197.10000000000002 L 162.93599999999998 183.084 L 162.06 178.704 L 139.284 178.704 L 139.284 184.836 L 146.292 184.836 L 142.788 188.34000000000003 L 134.028 188.34000000000003 L 130.524 184.836 L 130.524 169.94400000000002 L 134.028 165.56400000000002 L 147.168 165.56400000000002 L 149.796 169.068 L 162.06 169.068 L 162.06 159.43200000000002 L 156.804 153.3 L 123.51599999999999 153.3 L 118.25999999999999 157.68 L 118.25999999999999 188.34000000000003 L 123.51599999999999 197.10000000000002 L 140.16 197.10000000000002 Z" stroke = "red" stroke-width = "1" fill = "red" />
<path d = "M173.01000000000002 197.10000000000002L 173.01000000000002 153.3 L 187.90200000000002 153.3 L 187.90200000000002 162.06 L 201.04200000000003 162.06 L 201.04200000000003 153.3 L 216.81000000000003 153.3 L 216.81000000000003 197.10000000000002 L 201.91800000000003 197.10000000000002 L 201.91800000000003 186.58800000000002 L 187.90200000000002 186.58800000000002 L 187.90200000000002 197.10000000000002 L 173.01000000000002 197.10000000000002 Z" stroke = "orange" stroke-width = "1" fill = "orange" />
<path d = "M227.76000000000002 153.3L 271.56 153.3 L 271.56 173.448 L 257.54400000000004 173.448 L 257.54400000000004 197.10000000000002 L 240.02400000000003 197.10000000000002 L 240.02400000000003 173.448 L 227.76000000000002 173.448 L 227.76000000000002 153.3 Z" stroke = "yellow" stroke-width = "1" fill = "yellow" />
<path d = "M63.50999999999999 240.9L 107.31 240.9 L 107.31 261.048 L 93.294 261.048 L 93.294 284.7 L 75.774 284.7 L 75.774 261.048 L 63.50999999999999 261.048 L 63.50999999999999 240.9 Z" stroke = "green" stroke-width = "1" fill = "green" />
<path d = "M140.16 284.7L 140.16 268.056 L 142.788 268.056 L 145.416 265.428 L 145.416 261.924 L 142.788 259.296 L 137.53199999999998 259.296 L 134.904 261.924 L 134.904 265.428 L 137.53199999999998 268.056 L 140.16 268.056 L 140.16 284.7 L 123.51599999999999 284.7 L 118.25999999999999 277.692 L 118.25999999999999 246.156 L 122.63999999999999 240.9 L 155.928 240.9 L 162.06 246.156 L 162.06 277.692 L 162.06 277.692 L 155.928 284.7 L 140.16 284.7 Z" stroke = "blue" stroke-width = "1" fill = "blue" />
<path d = "M118.25999999999999 372.30000000000007L 118.25999999999999 328.50000000000006 L 152.42399999999998 328.50000000000006 L 162.06 337.26000000000005 L 162.93599999999998 354.7800000000001 L 154.176 360.03600000000006 L 162.06 372.30000000000007 L 144.54 372.30000000000007 L 139.284 363.5400000000001 L 139.284 372.30000000000007 L 136.656 372.30000000000007 L 136.656 351.27600000000007 L 143.664 351.27600000000007 L 148.92 345.14400000000006 L 144.54 339.01200000000006 L 135.78 339.01200000000006 L 135.78 351.27600000000007 L 136.656 351.27600000000007 L 136.656 372.30000000000007 L 118.25999999999999 372.30000000000007 Z" stroke = "purple" stroke-width = "1" fill = "purple" />
<path d = "M173.01000000000002 372.30000000000007L 173.01000000000002 328.50000000000006 L 216.81000000000003 328.50000000000006 L 216.81000000000003 340.76400000000007 L 204.54600000000002 340.76400000000007 L 204.54600000000002 346.02000000000004 L 216.81000000000003 346.02000000000004 L 216.81000000000003 354.7800000000001 L 204.54600000000002 354.7800000000001 L 204.54600000000002 360.91200000000003 L 216.81000000000003 360.91200000000003 L 217.68600000000004 372.30000000000007 L 173.01000000000002 372.30000000000007 Z" stroke = "red" stroke-width = "1" fill = "red" />
<path d = "M227.76000000000002 328.50000000000006L 268.932 328.50000000000006 L 271.56 331.12800000000004 L 271.56 348.6480000000001 L 268.932 351.27600000000007 L 271.56 353.90400000000005 L 271.56 368.79600000000005 L 268.05600000000004 372.30000000000007 L 247.90800000000002 372.30000000000007 L 247.90800000000002 364.41600000000005 L 250.53600000000003 364.41600000000005 L 253.16400000000002 361.78800000000007 L 250.53600000000003 359.1600000000001 L 247.90800000000002 359.1600000000001 L 247.90800000000002 343.39200000000005 L 251.41200000000003 343.39200000000005 L 254.04000000000002 340.76400000000007 L 251.41200000000003 338.1360000000001 L 247.90800000000002 338.1360000000001 L 247.90800000000002 372.30000000000007 L 227.76000000000002 372.30000000000007 L 227.76000000000002 328.50000000000006 Z" stroke = "orange" stroke-width = "1" fill = "orange" />
<path d = "M282.51000000000005 372.30000000000007L 282.51000000000005 328.50000000000006 L 326.31000000000006 328.50000000000006 L 326.31000000000006 340.76400000000007 L 314.04600000000005 340.76400000000007 L 314.04600000000005 346.02000000000004 L 326.31000000000006 346.02000000000004 L 326.31000000000006 354.7800000000001 L 314.04600000000005 354.7800000000001 L 314.04600000000005 360.91200000000003 L 326.31000000000006 360.91200000000003 L 327.18600000000004 372.30000000000007 L 282.51000000000005 372.30000000000007 Z" stroke = "yellow" stroke-width = "1" fill = "yellow" />
<path d = "M337.2600000000001 372.30000000000007L 337.2600000000001 328.50000000000006 L 359.1600000000001 328.50000000000006 L 359.1600000000001 351.27600000000007 L 381.0600000000001 351.27600000000007 L 381.0600000000001 372.30000000000007 L 337.2600000000001 372.30000000000007 Z" stroke = "green" stroke-width = "1" fill = "green" /></svg>