<svg width="826" height="826" viewbox = "0 0 826 826"  xmlns="http://www.w3.org/2000/svg">

<!--<json>[
    {
        "color": "red",
        "x": 0.1,
        "y": 0.15,
        "width": 0.1,
        "character": "W"
    },
    {
        "color": "orange",
        "x": 0.25,
        "y": 0.15,
        "width": 0.1,
        "character": "W"
    },
    {
        "color": "yellow",
        "x": 0.4,
        "y": 0.15,
        "width": 0.1,
        "character": "W"
    },
    {
        "color": "green",
        "x": 0.55,
        "y": 0.15,
        "width": 0.1,
        "character": "."
    },
    {
        "color": "#ff2cb4",
        "x": 0.7,
        "y": 0.15,
        "width": 0.1,
        "character": " "
    },
    {
        "color": "#ff2cb4",
        "x": 0.85,
        "y": 0.15,
        "width": 0.1,
        "character": " "
    },
    {
        "color": "#ff2cb4",
        "x": 1,
        "y": 0.15,
        "width": 0.1,
        "character": " "
    },
    {
        "color": "#ff2cb4",
        "x": 1.1500000000000001,
        "y": 0.15,
        "width": 0.1,
        "character": " "
    },
    {
        "color": "#ff2cb4",
        "x": 0.1,
        "y": 0.35,
        "width": 0.1,
        "character": " "
    },
    {
        "color": "blue",
        "x": 0.25,
        "y": 0.35,
        "width": 0.1,
        "character": "T"
    },
    {
        "color": "purple",
        "x": 0.4,
        "y": 0.35,
        "width": 0.1,
        "character": "R"
    },
    {
        "color": "red",
        "x": 0.55,
        "y": 0.35,
        "width": 0.1,
        "character": "A"
    },
    {
        "color": "orange",
        "x": 0.7,
        "y": 0.35,
        "width": 0.1,
        "character": "S"
    },
    {
        "color": "yellow",
        "x": 0.85,
        "y": 0.35,
        "width": 0.1,
        "character": "H"
    },
    {
        "color": "#ff2cb4",
        "x": 1,
        "y": 0.35,
        "width": 0.1,
        "character": " "
    },
    {
        "color": "#ff2cb4",
        "x": 1.1500000000000001,
        "y": 0.35,
        "width": 0.1,
        "character": " "
    },
    {
        "color": "green",
        "x": 0.1,
        "y": 0.55,
        "width": 0.1,
        "character": "R"
    },
    {
        "color": "blue",
        "x": 0.25,
        "y": 0.55,
        "width": 0.1,
        "character": "O"
    },
    {
        "color": "purple",
        "x": 0.4,
        "y": 0.55,
        "width": 0.1,
        "character": "B"
    },
    {
        "color": "red",
        "x": 0.55,
        "y": 0.55,
        "width": 0.1,
        "character": "O"
    },
    {
        "color": "orange",
        "x": 0.7,
        "y": 0.55,
        "width": 0.1,
        "character": "T"
    },
    {
        "color": "#ff2cb4",
        "x": 0.85,
        "y": 0.55,
        "width": 0.1,
        "character": " "
    },
    {
        "color": "#ff2cb4",
        "x": 1,
        "y": 0.55,
        "width": 0.1,
        "character": " "
    },
    {
        "color": "#ff2cb4",
        "x": 1.1500000000000001,
        "y": 0.55,
        "width": 0.1,
        "character": " "
    },
    {
        "color": "#ff2cb4",
        "x": 0.1,
        "y": 0.7500000000000001,
        "width": 0.1,
        "character": " "
    },
    {
        "color": "#ff2cb4",
        "x": 0.25,
        "y": 0.7500000000000001,
        "width": 0.1,
        "character": " "
    },
    {
        "color": "yellow",
        "x": 0.4,
        "y": 0.7500000000000001,
        "width": 0.1,
        "character": "."
    },
    {
        "color": "green",
        "x": 0.55,
        "y": 0.7500000000000001,
        "width": 0.1,
        "character": "N"
    },
    {
        "color": "blue",
        "x": 0.7,
        "y": 0.7500000000000001,
        "width": 0.1,
        "character": "E"
    },
    {
        "color": "purple",
        "x": 0.85,
        "y": 0.7500000000000001,
        "width": 0.1,
        "character": "T"
    }
]</json>-->
<path d = "M 0 0 L826 0 L826 826 L0 826 L0 0 Z" stroke = "black" stroke-width = "1" fill = "black" />
<path d = "M41.300000000000004 82.6L 66.08000000000001 82.6 L 74.34 99.12 L 82.60000000000001 82.6 L 89.208 99.12 L 97.46800000000002 82.6 L 123.9 82.6 L 90.86000000000001 165.2 L 84.25200000000001 151.98399999999998 L 75.992 165.2 L 41.300000000000004 82.6 Z" stroke = "red" stroke-width = "1" fill = "red" />
<path d = "M165.2 82.6L 189.98 82.6 L 198.24 99.12 L 206.5 82.6 L 213.108 99.12 L 221.368 82.6 L 247.8 82.6 L 214.76 165.2 L 208.152 151.98399999999998 L 199.892 165.2 L 165.2 82.6 Z" stroke = "orange" stroke-width = "1" fill = "orange" />
<path d = "M289.1 82.6L 313.88 82.6 L 322.14000000000004 99.12 L 330.40000000000003 82.6 L 337.00800000000004 99.12 L 345.26800000000003 82.6 L 371.70000000000005 82.6 L 338.66 165.2 L 332.052 151.98399999999998 L 323.79200000000003 165.2 L 289.1 82.6 Z" stroke = "yellow" stroke-width = "1" fill = "yellow" />
<path d = "M439.432 165.2L 439.432 143.724 L 460.908 143.724 L 460.908 165.2 L 439.432 165.2 Z" stroke = "green" stroke-width = "1" fill = "green" />
<path d = "M165.2 247.79999999999995L 247.8 247.79999999999995 L 247.8 285.79599999999994 L 221.368 285.79599999999994 L 221.368 330.4 L 188.328 330.4 L 188.328 285.79599999999994 L 165.2 285.79599999999994 L 165.2 247.79999999999995 Z" stroke = "blue" stroke-width = "1" fill = "blue" />
<path d = "M289.1 330.4L 289.1 247.79999999999995 L 353.528 247.79999999999995 L 371.70000000000005 264.31999999999994 L 373.35200000000003 297.35999999999996 L 356.83200000000005 307.27199999999993 L 371.70000000000005 330.4 L 338.66 330.4 L 328.74800000000005 313.88 L 328.74800000000005 330.4 L 323.79200000000003 330.4 L 323.79200000000003 290.75199999999995 L 337.00800000000004 290.75199999999995 L 346.92 279.188 L 338.66 267.62399999999997 L 322.14000000000004 267.62399999999997 L 322.14000000000004 290.75199999999995 L 323.79200000000003 290.75199999999995 L 323.79200000000003 330.4 L 289.1 330.4 Z" stroke = "purple" stroke-width = "1" fill = "purple" />
<path d = "M413 330.4L 429.52 247.79999999999995 L 479.08000000000004 246.14799999999997 L 495.6 330.4 L 469.168 330.4 L 455.952 264.31999999999994 L 449.344 294.056 L 464.212 294.056 L 467.516 313.88 L 446.04 313.88 L 441.084 330.4 L 413 330.4 Z" stroke = "red" stroke-width = "1" fill = "red" />
<path d = "M564.9839999999999 330.4L 546.812 330.4 L 536.9 317.18399999999997 L 536.9 302.316 L 545.16 302.316 L 551.768 310.57599999999996 L 556.7239999999999 315.532 L 571.592 315.532 L 583.156 315.532 L 593.068 308.924 L 594.72 299.01199999999994 L 581.504 289.09999999999997 L 563.332 282.49199999999996 L 548.4639999999999 277.53599999999994 L 541.856 269.27599999999995 L 538.552 262.66799999999995 L 536.9 257.71199999999993 L 540.204 251.10399999999996 L 545.16 249.45199999999994 L 556.7239999999999 247.79999999999995 L 576.548 247.79999999999995 L 591.4159999999999 247.79999999999995 L 599.6759999999999 251.10399999999996 L 612.8919999999999 256.05999999999995 L 616.196 262.66799999999995 L 619.5 269.27599999999995 L 607.9359999999999 275.88399999999996 L 594.72 265.972 L 574.896 262.66799999999995 L 564.9839999999999 264.31999999999994 L 571.592 269.27599999999995 L 591.4159999999999 275.88399999999996 L 606.284 284.14399999999995 L 611.24 295.70799999999997 L 612.8919999999999 312.22799999999995 L 604.632 320.48799999999994 L 591.4159999999999 330.4 L 564.9839999999999 330.4 Z" stroke = "orange" stroke-width = "1" fill = "orange" />
<path d = "M660.8000000000001 330.4L 660.8000000000001 247.79999999999995 L 688.884 247.79999999999995 L 688.884 264.31999999999994 L 713.6640000000001 264.31999999999994 L 713.6640000000001 247.79999999999995 L 743.4000000000001 247.79999999999995 L 743.4000000000001 330.4 L 715.316 330.4 L 715.316 310.57599999999996 L 688.884 310.57599999999996 L 688.884 330.4 L 660.8000000000001 330.4 Z" stroke = "yellow" stroke-width = "1" fill = "yellow" />
<path d = "M41.300000000000004 495.6L 41.300000000000004 413 L 105.72800000000001 413 L 123.9 429.52 L 125.55200000000002 462.56 L 109.03200000000001 472.472 L 123.9 495.6 L 90.86000000000001 495.6 L 80.94800000000001 479.08000000000004 L 80.94800000000001 495.6 L 75.992 495.6 L 75.992 455.952 L 89.208 455.952 L 99.12000000000002 444.38800000000003 L 90.86000000000001 432.824 L 74.34 432.824 L 74.34 455.952 L 75.992 455.952 L 75.992 495.6 L 41.300000000000004 495.6 Z" stroke = "green" stroke-width = "1" fill = "green" />
<path d = "M206.5 495.6L 206.5 464.212 L 211.456 464.212 L 216.41199999999998 459.25600000000003 L 216.41199999999998 452.648 L 211.456 447.692 L 201.54399999999998 447.692 L 196.588 452.648 L 196.588 459.25600000000003 L 201.54399999999998 464.212 L 206.5 464.212 L 206.5 495.6 L 175.112 495.6 L 165.2 482.384 L 165.2 422.912 L 173.45999999999998 413 L 236.236 413 L 247.8 422.912 L 247.8 482.384 L 247.8 482.384 L 236.236 495.6 L 206.5 495.6 Z" stroke = "blue" stroke-width = "1" fill = "blue" />
<path d = "M289.1 413L 366.744 413 L 371.70000000000005 417.956 L 371.70000000000005 450.996 L 366.744 455.952 L 371.70000000000005 460.908 L 371.70000000000005 488.992 L 365.09200000000004 495.6 L 327.096 495.6 L 327.096 480.732 L 332.052 480.732 L 337.00800000000004 475.776 L 332.052 470.82 L 327.096 470.82 L 327.096 441.084 L 333.704 441.084 L 338.66 436.128 L 333.704 431.172 L 327.096 431.172 L 327.096 495.6 L 289.1 495.6 L 289.1 413 Z" stroke = "purple" stroke-width = "1" fill = "purple" />
<path d = "M454.3 495.6L 454.3 464.212 L 459.25600000000003 464.212 L 464.212 459.25600000000003 L 464.212 452.648 L 459.25600000000003 447.692 L 449.344 447.692 L 444.38800000000003 452.648 L 444.38800000000003 459.25600000000003 L 449.344 464.212 L 454.3 464.212 L 454.3 495.6 L 422.912 495.6 L 413 482.384 L 413 422.912 L 421.26 413 L 484.036 413 L 495.6 422.912 L 495.6 482.384 L 495.6 482.384 L 484.036 495.6 L 454.3 495.6 Z" stroke = "red" stroke-width = "1" fill = "red" />
<path d = "M536.9 413L 619.5 413 L 619.5 450.996 L 593.068 450.996 L 593.068 495.6 L 560.028 495.6 L 560.028 450.996 L 536.9 450.996 L 536.9 413 Z" stroke = "orange" stroke-width = "1" fill = "orange" />
<path d = "M315.53200000000004 660.8000000000002L 315.53200000000004 639.3240000000002 L 337.00800000000004 639.3240000000002 L 337.00800000000004 660.8000000000002 L 315.53200000000004 660.8000000000002 Z" stroke = "yellow" stroke-width = "1" fill = "yellow" />
<path d = "M413 660.8000000000002L 413 578.2000000000002 L 439.432 578.2000000000002 L 464.212 599.6760000000002 L 464.212 578.2000000000002 L 495.6 578.2000000000002 L 495.6 660.8000000000002 L 464.212 660.8000000000002 L 437.78 640.9760000000001 L 437.78 660.8000000000002 L 413 660.8000000000002 Z" stroke = "green" stroke-width = "1" fill = "green" />
<path d = "M536.9 660.8000000000002L 536.9 578.2000000000002 L 619.5 578.2000000000002 L 619.5 601.3280000000002 L 596.372 601.3280000000002 L 596.372 611.2400000000001 L 619.5 611.2400000000001 L 619.5 627.7600000000002 L 596.372 627.7600000000002 L 596.372 639.3240000000002 L 619.5 639.3240000000002 L 621.152 660.8000000000002 L 536.9 660.8000000000002 Z" stroke = "blue" stroke-width = "1" fill = "blue" />
<path d = "M660.8000000000001 578.2000000000002L 743.4000000000001 578.2000000000002 L 743.4000000000001 616.1960000000001 L 716.9680000000001 616.1960000000001 L 716.9680000000001 660.8000000000002 L 683.9280000000001 660.8000000000002 L 683.9280000000001 616.1960000000001 L 660.8000000000001 616.1960000000001 L 660.8000000000001 578.2000000000002 Z" stroke = "purple" stroke-width = "1" fill = "purple" /></svg>