<svg width="776" height="776" viewbox = "0 0 776 776"  xmlns="http://www.w3.org/2000/svg">

<!--<json>{
    "text": "WWW.     THE      LAST    POET     .GAY",
    "left_margin": 0.03,
    "top_margin": 0.1,
    "horizontal_gap": 0.04,
    "vertical_gap": 0.06,
    "number_of_columns": 8,
    "rainbow": true
}</json>-->
<path d = "M 0 0 L776 0 L776 776 L0 776 L0 0 Z" stroke = "black" stroke-width = "1" fill = "black" />
<path d = "M23.279999999999994 77.60000000000002L 46.559999999999995 77.60000000000002 L 54.32 93.12000000000003 L 62.08 77.60000000000002 L 68.288 93.12000000000003 L 76.048 77.60000000000002 L 100.88 77.60000000000002 L 69.84 155.20000000000005 L 63.632 142.78400000000005 L 55.872 155.20000000000005 L 23.279999999999994 77.60000000000002 Z" stroke = "red" stroke-width = "1" fill = "red" />
<path d = "M131.92 77.60000000000002L 155.2 77.60000000000002 L 162.95999999999998 93.12000000000003 L 170.72 77.60000000000002 L 176.928 93.12000000000003 L 184.688 77.60000000000002 L 209.51999999999998 77.60000000000002 L 178.48 155.20000000000005 L 172.272 142.78400000000005 L 164.512 155.20000000000005 L 131.92 77.60000000000002 Z" stroke = "orange" stroke-width = "1" fill = "orange" />
<path d = "M240.56 77.60000000000002L 263.84000000000003 77.60000000000002 L 271.6 93.12000000000003 L 279.36 77.60000000000002 L 285.568 93.12000000000003 L 293.32800000000003 77.60000000000002 L 318.16 77.60000000000002 L 287.12 155.20000000000005 L 280.91200000000003 142.78400000000005 L 273.152 155.20000000000005 L 240.56 77.60000000000002 Z" stroke = "yellow" stroke-width = "1" fill = "yellow" />
<path d = "M374.032 155.20000000000005L 374.032 135.02400000000003 L 394.20799999999997 135.02400000000003 L 394.20799999999997 155.20000000000005 L 374.032 155.20000000000005 Z" stroke = "green" stroke-width = "1" fill = "green" />
<path d = "M131.92 201.76L 209.51999999999998 201.76 L 209.51999999999998 237.456 L 184.688 237.456 L 184.688 279.36 L 153.648 279.36 L 153.648 237.456 L 131.92 237.456 L 131.92 201.76 Z" stroke = "blue" stroke-width = "1" fill = "blue" />
<path d = "M240.56 279.36L 240.56 201.76 L 266.944 201.76 L 266.944 217.28 L 290.224 217.28 L 290.224 201.76 L 318.16 201.76 L 318.16 279.36 L 291.776 279.36 L 291.776 260.736 L 266.944 260.736 L 266.944 279.36 L 240.56 279.36 Z" stroke = "purple" stroke-width = "1" fill = "purple" />
<path d = "M349.2 279.36L 349.2 201.76 L 426.8 201.76 L 426.8 223.488 L 405.072 223.488 L 405.072 232.8 L 426.8 232.8 L 426.8 248.32 L 405.072 248.32 L 405.072 259.18399999999997 L 426.8 259.18399999999997 L 428.352 279.36 L 349.2 279.36 Z" stroke = "red" stroke-width = "1" fill = "red" />
<path d = "M240.56 403.52000000000004L 240.56 325.92 L 279.36 325.92 L 279.36 366.27200000000005 L 318.16 366.27200000000005 L 318.16 403.52000000000004 L 240.56 403.52000000000004 Z" stroke = "orange" stroke-width = "1" fill = "orange" />
<path d = "M349.2 403.52000000000004L 364.71999999999997 325.92 L 411.28 324.368 L 426.8 403.52000000000004 L 401.968 403.52000000000004 L 389.552 341.44 L 383.344 369.37600000000003 L 397.312 369.37600000000003 L 400.416 388 L 380.24 388 L 375.584 403.52000000000004 L 349.2 403.52000000000004 Z" stroke = "yellow" stroke-width = "1" fill = "yellow" />
<path d = "M484.224 403.52000000000004L 467.152 403.52000000000004 L 457.84 391.10400000000004 L 457.84 377.136 L 465.59999999999997 377.136 L 471.808 384.896 L 476.464 389.552 L 490.43199999999996 389.552 L 501.296 389.552 L 510.608 383.34400000000005 L 512.16 374.03200000000004 L 499.74399999999997 364.72 L 482.67199999999997 358.512 L 468.70399999999995 353.856 L 462.496 346.096 L 459.392 339.88800000000003 L 457.84 335.232 L 460.94399999999996 329.024 L 465.59999999999997 327.47200000000004 L 476.464 325.92 L 495.08799999999997 325.92 L 509.056 325.92 L 516.816 329.024 L 529.232 333.68 L 532.336 339.88800000000003 L 535.4399999999999 346.096 L 524.576 352.30400000000003 L 512.16 342.992 L 493.536 339.88800000000003 L 484.224 341.44 L 490.43199999999996 346.096 L 509.056 352.30400000000003 L 523.024 360.064 L 527.68 370.928 L 529.232 386.44800000000004 L 521.472 394.208 L 509.056 403.52000000000004 L 484.224 403.52000000000004 Z" stroke = "green" stroke-width = "1" fill = "green" />
<path d = "M566.48 325.92L 644.08 325.92 L 644.08 361.61600000000004 L 619.248 361.61600000000004 L 619.248 403.52000000000004 L 588.208 403.52000000000004 L 588.208 361.61600000000004 L 566.48 361.61600000000004 L 566.48 325.92 Z" stroke = "blue" stroke-width = "1" fill = "blue" />
<path d = "M240.56 527.6800000000001L 240.56 450.0800000000001 L 305.744 450.0800000000001 L 318.16 460.9440000000001 L 318.16 490.43200000000013 L 305.744 501.2960000000001 L 277.808 501.2960000000001 L 277.808 527.6800000000001 L 270.048 527.6800000000001 L 270.048 482.6720000000001 L 279.36 482.6720000000001 L 285.568 476.4640000000001 L 279.36 470.2560000000001 L 270.048 470.2560000000001 L 270.048 527.6800000000001 L 240.56 527.6800000000001 Z" stroke = "purple" stroke-width = "1" fill = "purple" />
<path d = "M388 527.6800000000001L 388 498.1920000000001 L 392.656 498.1920000000001 L 397.312 493.5360000000001 L 397.312 487.3280000000001 L 392.656 482.6720000000001 L 383.344 482.6720000000001 L 378.688 487.3280000000001 L 378.688 493.5360000000001 L 383.344 498.1920000000001 L 388 498.1920000000001 L 388 527.6800000000001 L 358.512 527.6800000000001 L 349.2 515.2640000000001 L 349.2 459.3920000000001 L 356.96 450.0800000000001 L 415.936 450.0800000000001 L 426.8 459.3920000000001 L 426.8 515.2640000000001 L 426.8 515.2640000000001 L 415.936 527.6800000000001 L 388 527.6800000000001 Z" stroke = "red" stroke-width = "1" fill = "red" />
<path d = "M457.84 527.6800000000001L 457.84 450.0800000000001 L 535.4399999999999 450.0800000000001 L 535.4399999999999 471.8080000000001 L 513.712 471.8080000000001 L 513.712 481.1200000000001 L 535.4399999999999 481.1200000000001 L 535.4399999999999 496.6400000000001 L 513.712 496.6400000000001 L 513.712 507.50400000000013 L 535.4399999999999 507.50400000000013 L 536.992 527.6800000000001 L 457.84 527.6800000000001 Z" stroke = "orange" stroke-width = "1" fill = "orange" />
<path d = "M566.48 450.0800000000001L 644.08 450.0800000000001 L 644.08 485.7760000000001 L 619.248 485.7760000000001 L 619.248 527.6800000000001 L 588.208 527.6800000000001 L 588.208 485.7760000000001 L 566.48 485.7760000000001 L 566.48 450.0800000000001 Z" stroke = "yellow" stroke-width = "1" fill = "yellow" />
<path d = "M374.032 651.8400000000001L 374.032 631.6640000000001 L 394.20799999999997 631.6640000000001 L 394.20799999999997 651.8400000000001 L 374.032 651.8400000000001 Z" stroke = "green" stroke-width = "1" fill = "green" />
<path d = "M496.64 651.8400000000001L 505.952 651.8400000000001 L 515.264 640.9760000000001 L 515.264 651.8400000000001 L 535.4399999999999 651.8400000000001 L 536.992 627.0080000000002 L 535.4399999999999 619.2480000000002 L 495.08799999999997 619.2480000000002 L 495.08799999999997 630.1120000000001 L 507.50399999999996 630.1120000000001 L 501.296 636.3200000000002 L 485.77599999999995 636.3200000000002 L 479.568 630.1120000000001 L 479.568 603.7280000000002 L 485.77599999999995 595.9680000000001 L 509.056 595.9680000000001 L 513.712 602.1760000000002 L 535.4399999999999 602.1760000000002 L 535.4399999999999 585.1040000000002 L 526.1279999999999 574.2400000000001 L 467.152 574.2400000000001 L 457.84 582.0000000000001 L 457.84 636.3200000000002 L 467.152 651.8400000000001 L 496.64 651.8400000000001 Z" stroke = "blue" stroke-width = "1" fill = "blue" />
<path d = "M566.48 651.8400000000001L 582 574.2400000000001 L 628.5600000000001 572.6880000000001 L 644.08 651.8400000000001 L 619.248 651.8400000000001 L 606.832 589.7600000000001 L 600.624 617.6960000000001 L 614.592 617.6960000000001 L 617.696 636.3200000000002 L 597.52 636.3200000000002 L 592.864 651.8400000000001 L 566.48 651.8400000000001 Z" stroke = "purple" stroke-width = "1" fill = "purple" />
<path d = "M675.1200000000001 574.2400000000001L 701.5040000000001 574.2400000000001 L 712.3680000000002 591.3120000000001 L 724.7840000000001 574.2400000000001 L 752.7200000000001 574.2400000000001 L 727.8880000000001 609.9360000000001 L 727.8880000000001 651.8400000000001 L 698.4000000000001 651.8400000000001 L 698.4000000000001 609.9360000000001 L 675.1200000000001 574.2400000000001 Z" stroke = "red" stroke-width = "1" fill = "red" /></svg>