<svg width="776" height="776" viewbox = "0 0 776 776"  xmlns="http://www.w3.org/2000/svg">

<!--<json>{
    "text": "WWW.    FOCUSED   ON    INFINITY .NET",
    "left_margin": 0.05,
    "top_margin": 0.1,
    "horizontal_gap": 0.014,
    "vertical_gap": 0.07,
    "number_of_columns": 8,
    "rainbow": true
}</json>-->
<path d = "M 0 0 L776 0 L776 776 L0 776 L0 0 Z" stroke = "black" stroke-width = "1" fill = "black" />
<path d = "M38.800000000000004 77.60000000000002L 62.080000000000005 77.60000000000002 L 69.84 93.12000000000003 L 77.60000000000001 77.60000000000002 L 83.808 93.12000000000003 L 91.56800000000001 77.60000000000002 L 116.4 77.60000000000002 L 85.36000000000001 155.20000000000005 L 79.15200000000002 142.78400000000005 L 71.39200000000001 155.20000000000005 L 38.800000000000004 77.60000000000002 Z" stroke = "red" stroke-width = "1" fill = "red" />
<path d = "M127.26400000000001 77.60000000000002L 150.544 77.60000000000002 L 158.30400000000003 93.12000000000003 L 166.06400000000002 77.60000000000002 L 172.27200000000002 93.12000000000003 L 180.032 77.60000000000002 L 204.86400000000003 77.60000000000002 L 173.824 155.20000000000005 L 167.616 142.78400000000005 L 159.85600000000002 155.20000000000005 L 127.26400000000001 77.60000000000002 Z" stroke = "orange" stroke-width = "1" fill = "orange" />
<path d = "M215.72800000000004 77.60000000000002L 239.00800000000004 77.60000000000002 L 246.76800000000003 93.12000000000003 L 254.52800000000005 77.60000000000002 L 260.73600000000005 93.12000000000003 L 268.49600000000004 77.60000000000002 L 293.32800000000003 77.60000000000002 L 262.288 155.20000000000005 L 256.08000000000004 142.78400000000005 L 248.32000000000005 155.20000000000005 L 215.72800000000004 77.60000000000002 Z" stroke = "yellow" stroke-width = "1" fill = "yellow" />
<path d = "M329.024 155.20000000000005L 329.024 135.02400000000003 L 349.2 135.02400000000003 L 349.2 155.20000000000005 L 329.024 155.20000000000005 Z" stroke = "green" stroke-width = "1" fill = "green" />
<path d = "M38.800000000000004 287.12L 38.800000000000004 209.51999999999998 L 116.4 209.51999999999998 L 116.4 231.248 L 99.328 231.248 L 99.328 242.112 L 116.4 242.112 L 116.4 259.18399999999997 L 99.328 259.18399999999997 L 99.328 287.12 L 38.800000000000004 287.12 Z" stroke = "blue" stroke-width = "1" fill = "blue" />
<path d = "M166.06400000000002 287.12L 166.06400000000002 257.632 L 170.72000000000003 257.632 L 175.376 252.976 L 175.376 246.76799999999997 L 170.72000000000003 242.112 L 161.40800000000002 242.112 L 156.752 246.76799999999997 L 156.752 252.976 L 161.40800000000002 257.632 L 166.06400000000002 257.632 L 166.06400000000002 287.12 L 136.57600000000002 287.12 L 127.26400000000001 274.704 L 127.26400000000001 218.832 L 135.024 209.51999999999998 L 194 209.51999999999998 L 204.86400000000003 218.832 L 204.86400000000003 274.704 L 204.86400000000003 274.704 L 194 287.12 L 166.06400000000002 287.12 Z" stroke = "purple" stroke-width = "1" fill = "purple" />
<path d = "M254.52800000000005 287.12L 277.80800000000005 287.12 L 293.32800000000003 271.6 L 293.32800000000003 249.87199999999999 L 266.9440000000001 249.87199999999999 L 266.9440000000001 249.87199999999999 L 262.288 256.08 L 254.52800000000005 256.08 L 249.87200000000004 249.87199999999999 L 249.87200000000004 240.56 L 254.52800000000005 235.904 L 263.84000000000003 235.904 L 266.9440000000001 240.56 L 293.32800000000003 240.56 L 293.32800000000003 217.27999999999997 L 287.12000000000006 209.51999999999998 L 223.48800000000003 209.51999999999998 L 215.72800000000004 217.27999999999997 L 215.72800000000004 277.808 L 223.48800000000003 287.12 L 277.80800000000005 287.12 Z" stroke = "red" stroke-width = "1" fill = "red" />
<path d = "M304.192 209.51999999999998L 333.68 209.51999999999998 L 333.68 235.904 L 336.784 249.87199999999999 L 342.992 256.08 L 350.752 256.08 L 355.408 251.42399999999998 L 358.512 243.664 L 358.512 209.51999999999998 L 381.79200000000003 209.51999999999998 L 381.79200000000003 263.84 L 381.79200000000003 276.256 L 378.688 280.912 L 369.37600000000003 285.568 L 363.168 287.12 L 319.712 287.12 L 311.952 282.464 L 307.296 276.256 L 304.192 263.84 L 304.192 209.51999999999998 Z" stroke = "orange" stroke-width = "1" fill = "orange" />
<path d = "M419.04 287.12L 401.968 287.12 L 392.656 274.704 L 392.656 260.736 L 400.416 260.736 L 406.624 268.496 L 411.28000000000003 273.152 L 425.248 273.152 L 436.112 273.152 L 445.42400000000004 266.94399999999996 L 446.976 257.632 L 434.56 248.32 L 417.488 242.112 L 403.52 237.456 L 397.312 229.69599999999997 L 394.208 223.48799999999997 L 392.656 218.832 L 395.76 212.624 L 400.416 211.07199999999997 L 411.28000000000003 209.51999999999998 L 429.904 209.51999999999998 L 443.872 209.51999999999998 L 451.632 212.624 L 464.048 217.27999999999997 L 467.15200000000004 223.48799999999997 L 470.25600000000003 229.69599999999997 L 459.392 235.904 L 446.976 226.59199999999998 L 428.35200000000003 223.48799999999997 L 419.04 225.04 L 425.248 229.69599999999997 L 443.872 235.904 L 457.84000000000003 243.664 L 462.496 254.528 L 464.048 270.048 L 456.288 277.808 L 443.872 287.12 L 419.04 287.12 Z" stroke = "yellow" stroke-width = "1" fill = "yellow" />
<path d = "M481.11999999999995 287.12L 481.11999999999995 209.51999999999998 L 558.7199999999999 209.51999999999998 L 558.7199999999999 231.248 L 536.992 231.248 L 536.992 240.56 L 558.7199999999999 240.56 L 558.7199999999999 256.08 L 536.992 256.08 L 536.992 266.94399999999996 L 558.7199999999999 266.94399999999996 L 560.2719999999999 287.12 L 481.11999999999995 287.12 Z" stroke = "green" stroke-width = "1" fill = "green" />
<path d = "M569.5840000000001 287.12L 569.5840000000001 209.51999999999998 L 634.768 209.51999999999998 L 647.1840000000001 221.93599999999998 L 647.1840000000001 273.152 L 633.2160000000001 287.12 L 600.624 287.12 L 600.624 265.392 L 611.488 265.392 L 619.248 256.08 L 619.248 237.456 L 611.488 228.14399999999998 L 599.0720000000001 228.14399999999998 L 599.0720000000001 265.392 L 600.624 265.392 L 602.176 287.12 L 569.5840000000001 287.12 Z" stroke = "blue" stroke-width = "1" fill = "blue" />
<path d = "M254.52800000000005 419.04L 254.52800000000005 389.552 L 259.184 389.552 L 263.84000000000003 384.896 L 263.84000000000003 378.688 L 259.184 374.032 L 249.87200000000004 374.032 L 245.21600000000004 378.688 L 245.21600000000004 384.896 L 249.87200000000004 389.552 L 254.52800000000005 389.552 L 254.52800000000005 419.04 L 225.04000000000005 419.04 L 215.72800000000004 406.624 L 215.72800000000004 350.752 L 223.48800000000003 341.44 L 282.46400000000006 341.44 L 293.32800000000003 350.752 L 293.32800000000003 406.624 L 293.32800000000003 406.624 L 282.46400000000006 419.04 L 254.52800000000005 419.04 Z" stroke = "purple" stroke-width = "1" fill = "purple" />
<path d = "M304.192 419.04L 304.192 341.44 L 329.024 341.44 L 352.30400000000003 361.616 L 352.30400000000003 341.44 L 381.79200000000003 341.44 L 381.79200000000003 419.04 L 352.30400000000003 419.04 L 327.472 400.416 L 327.472 419.04 L 304.192 419.04 Z" stroke = "red" stroke-width = "1" fill = "red" />
<path d = "M38.800000000000004 550.96L 38.800000000000004 529.2320000000001 L 54.32000000000001 529.2320000000001 L 54.32000000000001 496.6400000000001 L 38.800000000000004 496.6400000000001 L 38.800000000000004 473.36000000000007 L 116.4 473.36000000000007 L 116.4 496.6400000000001 L 97.77600000000001 496.6400000000001 L 97.77600000000001 529.2320000000001 L 116.4 529.2320000000001 L 116.4 550.96 L 38.800000000000004 550.96 Z" stroke = "orange" stroke-width = "1" fill = "orange" />
<path d = "M127.26400000000001 550.96L 127.26400000000001 473.36000000000007 L 152.096 473.36000000000007 L 175.376 493.53600000000006 L 175.376 473.36000000000007 L 204.86400000000003 473.36000000000007 L 204.86400000000003 550.96 L 175.376 550.96 L 150.544 532.3360000000001 L 150.544 550.96 L 127.26400000000001 550.96 Z" stroke = "yellow" stroke-width = "1" fill = "yellow" />
<path d = "M215.72800000000004 550.96L 215.72800000000004 473.36000000000007 L 293.32800000000003 473.36000000000007 L 293.32800000000003 495.0880000000001 L 276.25600000000003 495.0880000000001 L 276.25600000000003 505.95200000000006 L 293.32800000000003 505.95200000000006 L 293.32800000000003 523.0240000000001 L 276.25600000000003 523.0240000000001 L 276.25600000000003 550.96 L 215.72800000000004 550.96 Z" stroke = "green" stroke-width = "1" fill = "green" />
<path d = "M304.192 550.96L 304.192 529.2320000000001 L 319.712 529.2320000000001 L 319.712 496.6400000000001 L 304.192 496.6400000000001 L 304.192 473.36000000000007 L 381.79200000000003 473.36000000000007 L 381.79200000000003 496.6400000000001 L 363.168 496.6400000000001 L 363.168 529.2320000000001 L 381.79200000000003 529.2320000000001 L 381.79200000000003 550.96 L 304.192 550.96 Z" stroke = "blue" stroke-width = "1" fill = "blue" />
<path d = "M392.656 550.96L 392.656 473.36000000000007 L 417.488 473.36000000000007 L 440.76800000000003 493.53600000000006 L 440.76800000000003 473.36000000000007 L 470.25600000000003 473.36000000000007 L 470.25600000000003 550.96 L 440.76800000000003 550.96 L 415.93600000000004 532.3360000000001 L 415.93600000000004 550.96 L 392.656 550.96 Z" stroke = "purple" stroke-width = "1" fill = "purple" />
<path d = "M481.11999999999995 550.96L 481.11999999999995 529.2320000000001 L 496.63999999999993 529.2320000000001 L 496.63999999999993 496.6400000000001 L 481.11999999999995 496.6400000000001 L 481.11999999999995 473.36000000000007 L 558.7199999999999 473.36000000000007 L 558.7199999999999 496.6400000000001 L 540.096 496.6400000000001 L 540.096 529.2320000000001 L 558.7199999999999 529.2320000000001 L 558.7199999999999 550.96 L 481.11999999999995 550.96 Z" stroke = "red" stroke-width = "1" fill = "red" />
<path d = "M569.5840000000001 473.36000000000007L 647.1840000000001 473.36000000000007 L 647.1840000000001 509.0560000000001 L 622.3520000000001 509.0560000000001 L 622.3520000000001 550.96 L 591.312 550.96 L 591.312 509.0560000000001 L 569.5840000000001 509.0560000000001 L 569.5840000000001 473.36000000000007 Z" stroke = "orange" stroke-width = "1" fill = "orange" />
<path d = "M658.0480000000001 473.36000000000007L 684.4320000000001 473.36000000000007 L 695.2960000000002 490.4320000000001 L 707.7120000000001 473.36000000000007 L 735.6480000000001 473.36000000000007 L 710.8160000000001 509.0560000000001 L 710.8160000000001 550.96 L 681.3280000000001 550.96 L 681.3280000000001 509.0560000000001 L 658.0480000000001 473.36000000000007 Z" stroke = "yellow" stroke-width = "1" fill = "yellow" />
<path d = "M152.096 682.8800000000001L 152.096 662.7040000000001 L 172.27200000000002 662.7040000000001 L 172.27200000000002 682.8800000000001 L 152.096 682.8800000000001 Z" stroke = "green" stroke-width = "1" fill = "green" />
<path d = "M215.72800000000004 682.8800000000001L 215.72800000000004 605.2800000000001 L 240.56000000000003 605.2800000000001 L 263.84000000000003 625.4560000000001 L 263.84000000000003 605.2800000000001 L 293.32800000000003 605.2800000000001 L 293.32800000000003 682.8800000000001 L 263.84000000000003 682.8800000000001 L 239.00800000000004 664.2560000000001 L 239.00800000000004 682.8800000000001 L 215.72800000000004 682.8800000000001 Z" stroke = "blue" stroke-width = "1" fill = "blue" />
<path d = "M304.192 682.8800000000001L 304.192 605.2800000000001 L 381.79200000000003 605.2800000000001 L 381.79200000000003 627.008 L 360.064 627.008 L 360.064 636.32 L 381.79200000000003 636.32 L 381.79200000000003 651.8400000000001 L 360.064 651.8400000000001 L 360.064 662.7040000000001 L 381.79200000000003 662.7040000000001 L 383.34400000000005 682.8800000000001 L 304.192 682.8800000000001 Z" stroke = "purple" stroke-width = "1" fill = "purple" />
<path d = "M392.656 605.2800000000001L 470.25600000000003 605.2800000000001 L 470.25600000000003 640.9760000000001 L 445.42400000000004 640.9760000000001 L 445.42400000000004 682.8800000000001 L 414.384 682.8800000000001 L 414.384 640.9760000000001 L 392.656 640.9760000000001 L 392.656 605.2800000000001 Z" stroke = "red" stroke-width = "1" fill = "red" /></svg>