<svg width="776" height="776" viewbox = "0 0 776 776"  xmlns="http://www.w3.org/2000/svg">

<!--<json>{
    "text": "THE      LAST    POET     .GAY",
    "left_margin": 0.1,
    "top_margin": 0.1,
    "horizontal_gap": 0.04,
    "vertical_gap": 0.1,
    "number_of_columns": 8,
    "rainbow": true
}</json>-->
<path d = "M 0 0 L776 0 L776 776 L0 776 L0 0 Z" stroke = "black" stroke-width = "1" fill = "black" />
<path d = "M77.60000000000002 77.60000000000002L 155.20000000000005 77.60000000000002 L 155.20000000000005 113.29600000000002 L 130.36800000000002 113.29600000000002 L 130.36800000000002 155.20000000000005 L 99.32800000000003 155.20000000000005 L 99.32800000000003 113.29600000000002 L 77.60000000000002 113.29600000000002 L 77.60000000000002 77.60000000000002 Z" stroke = "red" stroke-width = "1" fill = "red" />
<path d = "M186.23999999999998 155.20000000000005L 186.23999999999998 77.60000000000002 L 212.624 77.60000000000002 L 212.624 93.12000000000003 L 235.904 93.12000000000003 L 235.904 77.60000000000002 L 263.84 77.60000000000002 L 263.84 155.20000000000005 L 237.456 155.20000000000005 L 237.456 136.57600000000002 L 212.624 136.57600000000002 L 212.624 155.20000000000005 L 186.23999999999998 155.20000000000005 Z" stroke = "orange" stroke-width = "1" fill = "orange" />
<path d = "M294.88000000000005 155.20000000000005L 294.88000000000005 77.60000000000002 L 372.4800000000001 77.60000000000002 L 372.4800000000001 99.32800000000003 L 350.75200000000007 99.32800000000003 L 350.75200000000007 108.64000000000003 L 372.4800000000001 108.64000000000003 L 372.4800000000001 124.16000000000003 L 350.75200000000007 124.16000000000003 L 350.75200000000007 135.02400000000003 L 372.4800000000001 135.02400000000003 L 374.03200000000004 155.20000000000005 L 294.88000000000005 155.20000000000005 Z" stroke = "yellow" stroke-width = "1" fill = "yellow" />
<path d = "M186.23999999999998 310.4L 186.23999999999998 232.79999999999995 L 225.04 232.79999999999995 L 225.04 273.15199999999993 L 263.84 273.15199999999993 L 263.84 310.4 L 186.23999999999998 310.4 Z" stroke = "green" stroke-width = "1" fill = "green" />
<path d = "M294.88000000000005 310.4L 310.40000000000003 232.79999999999995 L 356.96000000000004 231.24799999999996 L 372.4800000000001 310.4 L 347.6480000000001 310.4 L 335.2320000000001 248.31999999999996 L 329.02400000000006 276.256 L 342.9920000000001 276.256 L 346.09600000000006 294.88 L 325.9200000000001 294.88 L 321.26400000000007 310.4 L 294.88000000000005 310.4 Z" stroke = "blue" stroke-width = "1" fill = "blue" />
<path d = "M429.90400000000005 310.4L 412.83200000000005 310.4 L 403.52000000000004 297.984 L 403.52000000000004 284.01599999999996 L 411.28000000000003 284.01599999999996 L 417.48800000000006 291.77599999999995 L 422.14400000000006 296.43199999999996 L 436.112 296.43199999999996 L 446.97600000000006 296.43199999999996 L 456.28800000000007 290.22399999999993 L 457.84000000000003 280.912 L 445.42400000000004 271.59999999999997 L 428.35200000000003 265.39199999999994 L 414.384 260.73599999999993 L 408.17600000000004 252.97599999999994 L 405.07200000000006 246.76799999999994 L 403.52000000000004 242.11199999999997 L 406.624 235.90399999999997 L 411.28000000000003 234.35199999999995 L 422.14400000000006 232.79999999999995 L 440.76800000000003 232.79999999999995 L 454.73600000000005 232.79999999999995 L 462.49600000000004 235.90399999999997 L 474.91200000000003 240.55999999999995 L 478.0160000000001 246.76799999999994 L 481.12000000000006 252.97599999999994 L 470.25600000000003 259.18399999999997 L 457.84000000000003 249.87199999999996 L 439.21600000000007 246.76799999999994 L 429.90400000000005 248.31999999999996 L 436.112 252.97599999999994 L 454.73600000000005 259.18399999999997 L 468.70400000000006 266.94399999999996 L 473.36 277.80799999999994 L 474.91200000000003 293.328 L 467.15200000000004 301.08799999999997 L 454.73600000000005 310.4 L 429.90400000000005 310.4 Z" stroke = "purple" stroke-width = "1" fill = "purple" />
<path d = "M512.1600000000001 232.79999999999995L 589.7600000000001 232.79999999999995 L 589.7600000000001 268.496 L 564.9280000000001 268.496 L 564.9280000000001 310.4 L 533.888 310.4 L 533.888 268.496 L 512.1600000000001 268.496 L 512.1600000000001 232.79999999999995 Z" stroke = "red" stroke-width = "1" fill = "red" />
<path d = "M186.23999999999998 465.6L 186.23999999999998 388 L 251.42399999999998 388 L 263.84 398.864 L 263.84 428.352 L 251.42399999999998 439.216 L 223.488 439.216 L 223.488 465.6 L 215.72799999999998 465.6 L 215.72799999999998 420.592 L 225.04 420.592 L 231.248 414.384 L 225.04 408.176 L 215.72799999999998 408.176 L 215.72799999999998 465.6 L 186.23999999999998 465.6 Z" stroke = "orange" stroke-width = "1" fill = "orange" />
<path d = "M333.68000000000006 465.6L 333.68000000000006 436.112 L 338.33600000000007 436.112 L 342.9920000000001 431.456 L 342.9920000000001 425.248 L 338.33600000000007 420.592 L 329.02400000000006 420.592 L 324.36800000000005 425.248 L 324.36800000000005 431.456 L 329.02400000000006 436.112 L 333.68000000000006 436.112 L 333.68000000000006 465.6 L 304.19200000000006 465.6 L 294.88000000000005 453.184 L 294.88000000000005 397.312 L 302.64000000000004 388 L 361.61600000000004 388 L 372.4800000000001 397.312 L 372.4800000000001 453.184 L 372.4800000000001 453.184 L 361.61600000000004 465.6 L 333.68000000000006 465.6 Z" stroke = "yellow" stroke-width = "1" fill = "yellow" />
<path d = "M403.52000000000004 465.6L 403.52000000000004 388 L 481.12000000000006 388 L 481.12000000000006 409.728 L 459.39200000000005 409.728 L 459.39200000000005 419.04 L 481.12000000000006 419.04 L 481.12000000000006 434.56 L 459.39200000000005 434.56 L 459.39200000000005 445.424 L 481.12000000000006 445.424 L 482.672 465.6 L 403.52000000000004 465.6 Z" stroke = "green" stroke-width = "1" fill = "green" />
<path d = "M512.1600000000001 388L 589.7600000000001 388 L 589.7600000000001 423.696 L 564.9280000000001 423.696 L 564.9280000000001 465.6 L 533.888 465.6 L 533.888 423.696 L 512.1600000000001 423.696 L 512.1600000000001 388 Z" stroke = "blue" stroke-width = "1" fill = "blue" />
<path d = "M319.71200000000005 620.8000000000002L 319.71200000000005 600.6240000000001 L 339.88800000000003 600.6240000000001 L 339.88800000000003 620.8000000000002 L 319.71200000000005 620.8000000000002 Z" stroke = "purple" stroke-width = "1" fill = "purple" />
<path d = "M442.32000000000005 620.8000000000002L 451.63200000000006 620.8000000000002 L 460.9440000000001 609.9360000000001 L 460.9440000000001 620.8000000000002 L 481.12000000000006 620.8000000000002 L 482.672 595.9680000000002 L 481.12000000000006 588.2080000000002 L 440.76800000000003 588.2080000000002 L 440.76800000000003 599.0720000000001 L 453.184 599.0720000000001 L 446.97600000000006 605.2800000000002 L 431.456 605.2800000000002 L 425.24800000000005 599.0720000000001 L 425.24800000000005 572.6880000000002 L 431.456 564.9280000000001 L 454.73600000000005 564.9280000000001 L 459.39200000000005 571.1360000000002 L 481.12000000000006 571.1360000000002 L 481.12000000000006 554.0640000000002 L 471.80800000000005 543.2000000000002 L 412.83200000000005 543.2000000000002 L 403.52000000000004 550.9600000000002 L 403.52000000000004 605.2800000000002 L 412.83200000000005 620.8000000000002 L 442.32000000000005 620.8000000000002 Z" stroke = "red" stroke-width = "1" fill = "red" />
<path d = "M512.1600000000001 620.8000000000002L 527.6800000000001 543.2000000000002 L 574.2400000000001 541.6480000000001 L 589.7600000000001 620.8000000000002 L 564.9280000000001 620.8000000000002 L 552.5120000000001 558.7200000000001 L 546.3040000000001 586.6560000000002 L 560.272 586.6560000000002 L 563.3760000000001 605.2800000000002 L 543.2 605.2800000000002 L 538.5440000000001 620.8000000000002 L 512.1600000000001 620.8000000000002 Z" stroke = "orange" stroke-width = "1" fill = "orange" />
<path d = "M620.8000000000001 543.2000000000002L 647.1840000000001 543.2000000000002 L 658.0480000000001 560.2720000000002 L 670.464 543.2000000000002 L 698.4000000000001 543.2000000000002 L 673.5680000000001 578.8960000000002 L 673.5680000000001 620.8000000000002 L 644.08 620.8000000000002 L 644.08 578.8960000000002 L 620.8000000000001 543.2000000000002 Z" stroke = "yellow" stroke-width = "1" fill = "yellow" /></svg>