<svg width="826" height="826" viewbox = "0 0 826 826"  xmlns="http://www.w3.org/2000/svg">

<!--<json>[
    {
        "color": "red",
        "x": 0.1,
        "y": 0.1,
        "width": 0.1,
        "character": "g"
    },
    {
        "color": "orange",
        "x": 0.21000000000000002,
        "y": 0.1,
        "width": 0.1,
        "character": "i"
    },
    {
        "color": "yellow",
        "x": 0.32000000000000006,
        "y": 0.1,
        "width": 0.1,
        "character": "t"
    },
    {
        "color": "green",
        "x": 0.43000000000000005,
        "y": 0.1,
        "width": 0.1,
        "character": "h"
    },
    {
        "color": "blue",
        "x": 0.54,
        "y": 0.1,
        "width": 0.1,
        "character": "u"
    },
    {
        "color": "purple",
        "x": 0.65,
        "y": 0.1,
        "width": 0.1,
        "character": "b"
    },
    {
        "color": "#ff2cb4",
        "x": 0.76,
        "y": 0.1,
        "width": 0.1,
        "character": " "
    },
    {
        "color": "#ff2cb4",
        "x": 0.8700000000000001,
        "y": 0.1,
        "width": 0.1,
        "character": " "
    },
    {
        "color": "red",
        "x": 0.1,
        "y": 0.21000000000000002,
        "width": 0.1,
        "character": "."
    },
    {
        "color": "orange",
        "x": 0.21000000000000002,
        "y": 0.21000000000000002,
        "width": 0.1,
        "character": "c"
    },
    {
        "color": "yellow",
        "x": 0.32000000000000006,
        "y": 0.21000000000000002,
        "width": 0.1,
        "character": "o"
    },
    {
        "color": "green",
        "x": 0.43000000000000005,
        "y": 0.21000000000000002,
        "width": 0.1,
        "character": "m"
    },
    {
        "color": "blue",
        "x": 0.54,
        "y": 0.21000000000000002,
        "width": 0.1,
        "character": "/"
    },
    {
        "color": "#ff2cb4",
        "x": 0.65,
        "y": 0.21000000000000002,
        "width": 0.1,
        "character": " "
    },
    {
        "color": "#ff2cb4",
        "x": 0.76,
        "y": 0.21000000000000002,
        "width": 0.1,
        "character": " "
    },
    {
        "color": "#ff2cb4",
        "x": 0.8700000000000001,
        "y": 0.21000000000000002,
        "width": 0.1,
        "character": " "
    },
    {
        "color": "purple",
        "x": 0.1,
        "y": 0.32000000000000006,
        "width": 0.1,
        "character": "l"
    },
    {
        "color": "red",
        "x": 0.21000000000000002,
        "y": 0.32000000000000006,
        "width": 0.1,
        "character": "a"
    },
    {
        "color": "orange",
        "x": 0.32000000000000006,
        "y": 0.32000000000000006,
        "width": 0.1,
        "character": "f"
    },
    {
        "color": "yellow",
        "x": 0.43000000000000005,
        "y": 0.32000000000000006,
        "width": 0.1,
        "character": "e"
    },
    {
        "color": "green",
        "x": 0.54,
        "y": 0.32000000000000006,
        "width": 0.1,
        "character": "l"
    },
    {
        "color": "blue",
        "x": 0.65,
        "y": 0.32000000000000006,
        "width": 0.1,
        "character": "a"
    },
    {
        "color": "purple",
        "x": 0.76,
        "y": 0.32000000000000006,
        "width": 0.1,
        "character": "b"
    },
    {
        "color": "red",
        "x": 0.8700000000000001,
        "y": 0.32000000000000006,
        "width": 0.1,
        "character": "s"
    },
    {
        "color": "orange",
        "x": 0.1,
        "y": 0.43000000000000005,
        "width": 0.1,
        "character": "/"
    },
    {
        "color": "yellow",
        "x": 0.21000000000000002,
        "y": 0.43000000000000005,
        "width": 0.1,
        "character": "B"
    },
    {
        "color": "green",
        "x": 0.32000000000000006,
        "y": 0.43000000000000005,
        "width": 0.1,
        "character": "L"
    },
    {
        "color": "blue",
        "x": 0.43000000000000005,
        "y": 0.43000000000000005,
        "width": 0.1,
        "character": "A"
    },
    {
        "color": "purple",
        "x": 0.54,
        "y": 0.43000000000000005,
        "width": 0.1,
        "character": "C"
    },
    {
        "color": "red",
        "x": 0.65,
        "y": 0.43000000000000005,
        "width": 0.1,
        "character": "K"
    },
    {
        "color": "orange",
        "x": 0.76,
        "y": 0.43000000000000005,
        "width": 0.1,
        "character": "-"
    },
    {
        "color": "#ff2cb4",
        "x": 0.8700000000000001,
        "y": 0.43000000000000005,
        "width": 0.1,
        "character": " "
    },
    {
        "color": "yellow",
        "x": 0.1,
        "y": 0.54,
        "width": 0.1,
        "character": "F"
    },
    {
        "color": "green",
        "x": 0.21000000000000002,
        "y": 0.54,
        "width": 0.1,
        "character": "L"
    },
    {
        "color": "blue",
        "x": 0.32000000000000006,
        "y": 0.54,
        "width": 0.1,
        "character": "A"
    },
    {
        "color": "purple",
        "x": 0.43000000000000005,
        "y": 0.54,
        "width": 0.1,
        "character": "G"
    }
]</json>-->
<path d = "M 0 0 L826 0 L826 826 L0 826 L0 0 Z" stroke = "black" stroke-width = "1" fill = "black" />
<path d = "M99.12000000000002 59.47200000000001L 99.12000000000002 54.516000000000005 L 107.38000000000002 54.516000000000005 L 107.38000000000002 100.772 L 100.772 113.988 L 100.772 113.988 L 90.86000000000001 120.596 L 82.60000000000001 123.9 L 74.34 123.9 L 64.42800000000001 118.94400000000002 L 61.12400000000001 113.988 L 59.47200000000001 105.72800000000001 L 67.732 105.72800000000001 L 74.34 110.684 L 82.60000000000001 110.684 L 89.208 107.38000000000002 L 95.816 102.424 L 99.12000000000002 95.816 L 99.12000000000002 87.55600000000001 L 90.86000000000001 94.16400000000002 L 80.94800000000001 94.16400000000002 L 72.68800000000002 90.86000000000001 L 64.42800000000001 82.60000000000001 L 62.77600000000001 72.68800000000002 L 66.08000000000001 59.47200000000001 L 75.992 51.212 L 89.208 51.212 L 95.816 56.168000000000006 L 95.816 66.08000000000001 L 80.94800000000001 67.732 L 75.992 72.68800000000002 L 80.94800000000001 79.296 L 87.55600000000001 80.94800000000001 L 95.816 77.644 L 95.816 54.516000000000005 L 99.12000000000002 54.516000000000005 L 99.12000000000002 59.47200000000001 Z" stroke = "red" stroke-width = "1" fill = "red" />
<path d = "M170.156 67.732L 170.156 59.47200000000001 L 178.416 59.47200000000001 L 178.416 67.732 L 170.156 67.732 L 170.156 77.644 L 178.416 77.644 L 180.06799999999998 123.9 L 170.156 123.9 L 170.156 77.644 L 170.156 77.644 Z" stroke = "orange" stroke-width = "1" fill = "orange" />
<path d = "M261.016 56.168000000000006L 261.016 62.77600000000001 L 251.10400000000004 62.77600000000001 L 251.10400000000004 71.036 L 261.016 71.036 L 261.016 85.90400000000001 L 262.66800000000006 99.12000000000002 L 267.624 110.684 L 274.232 117.292 L 280.84000000000003 118.94400000000002 L 287.44800000000004 117.292 L 292.40400000000005 113.988 L 294.05600000000004 109.03200000000001 L 295.708 105.72800000000001 L 295.708 100.772 L 290.75200000000007 100.772 L 285.79600000000005 104.07600000000002 L 279.18800000000005 110.684 L 270.92800000000005 104.07600000000002 L 269.27600000000007 95.816 L 269.27600000000007 72.68800000000002 L 277.53600000000006 72.68800000000002 L 277.53600000000006 62.77600000000001 L 269.27600000000007 62.77600000000001 L 269.27600000000007 51.212 L 261.016 51.212 L 261.016 56.168000000000006 Z" stroke = "yellow" stroke-width = "1" fill = "yellow" />
<path d = "M345.26800000000003 41.300000000000004L 345.26800000000003 123.9 L 353.5280000000001 123.9 L 353.5280000000001 105.72800000000001 L 360.1360000000001 99.12000000000002 L 368.3960000000001 95.816 L 373.35200000000003 100.772 L 376.65600000000006 110.684 L 378.30800000000005 123.9 L 386.56800000000004 123.9 L 386.56800000000004 104.07600000000002 L 381.6120000000001 92.512 L 373.35200000000003 85.90400000000001 L 363.44000000000005 85.90400000000001 L 355.18000000000006 87.55600000000001 L 353.5280000000001 89.208 L 353.5280000000001 41.300000000000004 L 345.26800000000003 41.300000000000004 Z" stroke = "green" stroke-width = "1" fill = "green" />
<path d = "M434.476 75.992L 434.476 92.512 L 439.432 110.684 L 446.04 122.24800000000002 L 454.3 123.9 L 464.212 118.94400000000002 L 467.516 113.988 L 470.82000000000005 109.03200000000001 L 472.47200000000004 100.772 L 472.47200000000004 75.992 L 464.212 75.992 L 464.212 95.816 L 460.908 102.424 L 452.648 105.72800000000001 L 449.344 105.72800000000001 L 444.38800000000003 100.772 L 442.736 75.992 L 434.476 75.992 Z" stroke = "blue" stroke-width = "1" fill = "blue" />
<path d = "M523.684 41.300000000000004L 522.0319999999999 123.9 L 541.856 123.9 L 541.856 117.292 L 546.812 123.9 L 571.592 123.9 L 578.1999999999999 117.292 L 578.1999999999999 85.90400000000001 L 569.9399999999999 79.296 L 546.812 79.296 L 541.856 85.90400000000001 L 541.856 97.46800000000002 L 551.768 92.512 L 566.636 94.16400000000002 L 571.592 102.424 L 563.332 112.33600000000001 L 551.768 112.33600000000001 L 541.856 107.38000000000002 L 541.856 41.300000000000004 L 523.684 41.300000000000004 Z" stroke = "purple" stroke-width = "1" fill = "purple" />
<path d = "M67.732 214.76L 67.732 193.284 L 89.208 193.284 L 89.208 214.76 L 67.732 214.76 Z" stroke = "red" stroke-width = "1" fill = "red" />
<path d = "M185.024 180.06799999999998L 185.024 165.2 L 160.244 160.244 L 155.288 160.244 L 140.42 176.764 L 142.072 198.24 L 158.59199999999998 213.108 L 168.504 214.76 L 183.372 214.76 L 185.024 194.936 L 163.548 194.936 L 156.94 188.328 L 163.548 173.46 L 176.764 180.06799999999998 L 185.024 180.06799999999998 Z" stroke = "orange" stroke-width = "1" fill = "orange" />
<path d = "M264.32000000000005 161.896L 247.80000000000004 161.896 L 237.88800000000003 170.156 L 236.23600000000005 186.676 L 236.23600000000005 199.892 L 246.14800000000005 214.76 L 267.624 214.76 L 279.18800000000005 208.152 L 285.79600000000005 194.936 L 282.492 178.416 L 274.232 166.852 L 264.32000000000005 161.896 L 264.32000000000005 201.54399999999998 L 257.71200000000005 204.848 L 247.80000000000004 199.892 L 244.49600000000004 189.98000000000002 L 251.10400000000004 181.72 L 256.06000000000006 181.72 L 261.016 183.372 L 264.32000000000005 188.328 L 264.32000000000005 161.896 Z" stroke = "yellow" stroke-width = "1" fill = "yellow" />
<path d = "M333.70400000000006 214.76L 333.70400000000006 173.46 L 338.6600000000001 173.46 L 338.6600000000001 178.416 L 345.26800000000003 173.46 L 356.83200000000005 173.46 L 363.44000000000005 178.416 L 371.70000000000005 173.46 L 388.22 173.46 L 394.8280000000001 178.416 L 396.4800000000001 183.372 L 396.4800000000001 214.76 L 386.56800000000004 214.76 L 386.56800000000004 189.98000000000002 L 381.6120000000001 185.024 L 375.0040000000001 185.024 L 370.04800000000006 188.328 L 370.04800000000006 214.76 L 358.48400000000004 214.76 L 358.48400000000004 188.328 L 353.5280000000001 183.372 L 346.9200000000001 183.372 L 340.31200000000007 188.328 L 340.31200000000007 214.76 L 333.70400000000006 214.76 Z" stroke = "green" stroke-width = "1" fill = "green" />
<path d = "M459.25600000000003 132.16L 404.74 214.76 L 436.12800000000004 214.76 L 487.34000000000003 132.16 L 460.908 132.16 Z" stroke = "blue" stroke-width = "1" fill = "blue" />
<path d = "M79.296 223.02000000000004L 79.296 305.62000000000006 L 85.90400000000001 305.62000000000006 L 87.55600000000001 223.02000000000004 L 71.036 223.02000000000004 L 71.036 226.32400000000004 L 79.296 226.32400000000004 L 79.296 226.32400000000004 Z" stroke = "purple" stroke-width = "1" fill = "purple" />
<path d = "M189.98000000000002 294.05600000000004L 178.416 305.62000000000006 L 153.636 305.62000000000006 L 138.768 292.40400000000005 L 132.16 284.14400000000006 L 132.16 256.06000000000006 L 145.376 237.88800000000003 L 170.156 232.93200000000004 L 189.98000000000002 234.58400000000003 L 189.98000000000002 252.75600000000003 L 170.156 252.75600000000003 L 160.244 264.32000000000005 L 166.852 282.492 L 189.98000000000002 282.492 L 189.98000000000002 227.97600000000003 L 214.76 227.97600000000003 L 214.76 305.62000000000006 L 189.98000000000002 305.62000000000006 L 189.98000000000002 294.05600000000004 Z" stroke = "red" stroke-width = "1" fill = "red" />
<path d = "M252.75600000000003 305.62000000000006L 252.75600000000003 265.97200000000004 L 244.49600000000004 265.97200000000004 L 244.49600000000004 257.71200000000005 L 252.75600000000003 257.71200000000005 L 252.75600000000003 239.54000000000005 L 257.71200000000005 226.32400000000004 L 265.97200000000004 223.02000000000004 L 275.884 223.02000000000004 L 287.44800000000004 226.32400000000004 L 292.40400000000005 234.58400000000003 L 292.40400000000005 242.84400000000005 L 280.84000000000003 242.84400000000005 L 275.884 236.23600000000005 L 270.92800000000005 236.23600000000005 L 265.97200000000004 239.54000000000005 L 265.97200000000004 244.49600000000004 L 265.97200000000004 257.71200000000005 L 274.232 257.71200000000005 L 274.232 265.97200000000004 L 265.97200000000004 265.97200000000004 L 265.97200000000004 305.62000000000006 L 252.75600000000003 305.62000000000006 Z" stroke = "orange" stroke-width = "1" fill = "orange" />
<path d = "M370.04800000000006 289.1L 379.96000000000004 289.1 L 373.35200000000003 300.66400000000004 L 361.78800000000007 305.62000000000006 L 337.00800000000004 305.62000000000006 L 325.4440000000001 295.708 L 320.48800000000006 277.53600000000006 L 323.79200000000003 252.75600000000003 L 338.6600000000001 237.88800000000003 L 360.1360000000001 236.23600000000005 L 379.96000000000004 239.54000000000005 L 384.91600000000005 256.06000000000006 L 383.26400000000007 264.32000000000005 L 365.09200000000004 270.92800000000005 L 353.5280000000001 272.58000000000004 L 345.26800000000003 272.58000000000004 L 345.26800000000003 261.016 L 370.04800000000006 259.36400000000003 L 361.78800000000007 249.45200000000006 L 350.22400000000005 249.45200000000006 L 343.61600000000004 252.75600000000003 L 345.26800000000003 261.016 L 345.26800000000003 292.40400000000005 L 363.44000000000005 292.40400000000005 L 368.3960000000001 289.1 Z" stroke = "yellow" stroke-width = "1" fill = "yellow" />
<path d = "M442.736 223.02000000000004L 442.736 305.62000000000006 L 449.344 305.62000000000006 L 450.99600000000004 223.02000000000004 L 434.476 223.02000000000004 L 434.476 226.32400000000004 L 442.736 226.32400000000004 L 442.736 226.32400000000004 Z" stroke = "green" stroke-width = "1" fill = "green" />
<path d = "M553.42 294.05600000000004L 541.856 305.62000000000006 L 517.076 305.62000000000006 L 502.20799999999997 292.40400000000005 L 495.59999999999997 284.14400000000006 L 495.59999999999997 256.06000000000006 L 508.816 237.88800000000003 L 533.596 232.93200000000004 L 553.42 234.58400000000003 L 553.42 252.75600000000003 L 533.596 252.75600000000003 L 523.684 264.32000000000005 L 530.2919999999999 282.492 L 553.42 282.492 L 553.42 227.97600000000003 L 578.1999999999999 227.97600000000003 L 578.1999999999999 305.62000000000006 L 553.42 305.62000000000006 L 553.42 294.05600000000004 Z" stroke = "blue" stroke-width = "1" fill = "blue" />
<path d = "M614.5440000000001 223.02000000000004L 612.892 305.62000000000006 L 632.716 305.62000000000006 L 632.716 299.01200000000006 L 637.672 305.62000000000006 L 662.452 305.62000000000006 L 669.0600000000001 299.01200000000006 L 669.0600000000001 267.624 L 660.8000000000001 261.016 L 637.672 261.016 L 632.716 267.624 L 632.716 279.18800000000005 L 642.628 274.232 L 657.4960000000001 275.884 L 662.452 284.14400000000006 L 654.192 294.05600000000004 L 642.628 294.05600000000004 L 632.716 289.1 L 632.716 223.02000000000004 L 614.5440000000001 223.02000000000004 Z" stroke = "purple" stroke-width = "1" fill = "purple" />
<path d = "M730.1840000000002 259.36400000000003L 736.7920000000001 254.40800000000004 L 721.9240000000002 244.49600000000004 L 713.6640000000002 246.14800000000005 L 703.7520000000002 256.06000000000006 L 703.7520000000002 259.36400000000003 L 703.7520000000002 272.58000000000004 L 705.4040000000002 275.884 L 713.6640000000002 277.53600000000006 L 720.2720000000002 277.53600000000006 L 726.8800000000001 275.884 L 731.8360000000001 287.44800000000004 L 730.1840000000002 289.1 L 726.8800000000001 290.75200000000007 L 726.8800000000001 290.75200000000007 L 712.0120000000002 289.1 L 702.1000000000001 287.44800000000004 L 702.1000000000001 292.40400000000005 L 707.0560000000002 300.66400000000004 L 715.3160000000001 303.9680000000001 L 725.2280000000002 302.31600000000003 L 738.4440000000002 292.40400000000005 L 740.0960000000002 280.84000000000003 L 738.4440000000002 275.884 L 731.8360000000001 269.27600000000007 L 726.8800000000001 269.27600000000007 L 720.2720000000002 270.92800000000005 L 715.3160000000001 269.27600000000007 L 713.6640000000002 267.624 L 713.6640000000002 256.06000000000006 L 715.3160000000001 252.75600000000003 L 721.9240000000002 251.10400000000004 L 726.8800000000001 254.40800000000004 L 728.5320000000002 256.06000000000006 L 730.1840000000002 259.36400000000003 Z" stroke = "red" stroke-width = "1" fill = "red" />
<path d = "M95.816 313.88000000000005L 41.300000000000004 396.4800000000001 L 72.68800000000002 396.4800000000001 L 123.9 313.88000000000005 L 97.46800000000002 313.88000000000005 Z" stroke = "orange" stroke-width = "1" fill = "orange" />
<path d = "M132.16 313.88000000000005L 209.80400000000003 313.88000000000005 L 214.76 318.83600000000007 L 214.76 351.87600000000003 L 209.80400000000003 356.83200000000005 L 214.76 361.78800000000007 L 214.76 389.87200000000007 L 208.152 396.4800000000001 L 170.156 396.4800000000001 L 170.156 381.6120000000001 L 175.112 381.6120000000001 L 180.06799999999998 376.65600000000006 L 175.112 371.70000000000005 L 170.156 371.70000000000005 L 170.156 341.96400000000006 L 176.764 341.96400000000006 L 181.72 337.00800000000004 L 176.764 332.0520000000001 L 170.156 332.0520000000001 L 170.156 396.4800000000001 L 132.16 396.4800000000001 L 132.16 313.88000000000005 Z" stroke = "yellow" stroke-width = "1" fill = "yellow" />
<path d = "M223.02000000000004 396.4800000000001L 223.02000000000004 313.88000000000005 L 264.32000000000005 313.88000000000005 L 264.32000000000005 356.83200000000005 L 305.62000000000006 356.83200000000005 L 305.62000000000006 396.4800000000001 L 223.02000000000004 396.4800000000001 Z" stroke = "green" stroke-width = "1" fill = "green" />
<path d = "M313.88000000000005 396.4800000000001L 330.40000000000003 313.88000000000005 L 379.96000000000004 312.22800000000007 L 396.4800000000001 396.4800000000001 L 370.04800000000006 396.4800000000001 L 356.83200000000005 330.40000000000003 L 350.22400000000005 360.1360000000001 L 365.09200000000004 360.1360000000001 L 368.3960000000001 379.96000000000004 L 346.9200000000001 379.96000000000004 L 341.96400000000006 396.4800000000001 L 313.88000000000005 396.4800000000001 Z" stroke = "blue" stroke-width = "1" fill = "blue" />
<path d = "M446.04 396.4800000000001L 470.82000000000005 396.4800000000001 L 487.34000000000003 379.96000000000004 L 487.34000000000003 356.83200000000005 L 459.25600000000003 356.83200000000005 L 459.25600000000003 356.83200000000005 L 454.3 363.44000000000005 L 446.04 363.44000000000005 L 441.084 356.83200000000005 L 441.084 346.9200000000001 L 446.04 341.96400000000006 L 455.952 341.96400000000006 L 459.25600000000003 346.9200000000001 L 487.34000000000003 346.9200000000001 L 487.34000000000003 322.14000000000004 L 480.732 313.88000000000005 L 413 313.88000000000005 L 404.74 322.14000000000004 L 404.74 386.56800000000004 L 413 396.4800000000001 L 470.82000000000005 396.4800000000001 Z" stroke = "purple" stroke-width = "1" fill = "purple" />
<path d = "M495.59999999999997 396.4800000000001L 495.59999999999997 313.88000000000005 L 535.2479999999999 313.88000000000005 L 535.2479999999999 333.70400000000006 L 553.42 313.88000000000005 L 578.1999999999999 313.88000000000005 L 579.852 340.31200000000007 L 561.68 358.48400000000004 L 578.1999999999999 373.35200000000003 L 578.1999999999999 396.4800000000001 L 555.072 396.4800000000001 L 535.2479999999999 376.65600000000006 L 535.2479999999999 396.4800000000001 L 495.59999999999997 396.4800000000001 Z" stroke = "red" stroke-width = "1" fill = "red" />
<path d = "M594.72 370.04800000000006L 594.72 345.26800000000003 L 664.104 345.26800000000003 L 664.104 370.04800000000006 L 594.72 370.04800000000006 Z" stroke = "orange" stroke-width = "1" fill = "orange" />
<path d = "M41.300000000000004 487.34000000000003L 41.300000000000004 404.74 L 123.9 404.74 L 123.9 427.868 L 105.72800000000001 427.868 L 105.72800000000001 439.432 L 123.9 439.432 L 123.9 457.60400000000004 L 105.72800000000001 457.60400000000004 L 105.72800000000001 487.34000000000003 L 41.300000000000004 487.34000000000003 Z" stroke = "yellow" stroke-width = "1" fill = "yellow" />
<path d = "M132.16 487.34000000000003L 132.16 404.74 L 173.46 404.74 L 173.46 447.692 L 214.76 447.692 L 214.76 487.34000000000003 L 132.16 487.34000000000003 Z" stroke = "green" stroke-width = "1" fill = "green" />
<path d = "M223.02000000000004 487.34000000000003L 239.54000000000005 404.74 L 289.1 403.088 L 305.62000000000006 487.34000000000003 L 279.18800000000005 487.34000000000003 L 265.97200000000004 421.26 L 259.36400000000003 450.99600000000004 L 274.232 450.99600000000004 L 277.53600000000006 470.82000000000005 L 256.06000000000006 470.82000000000005 L 251.10400000000004 487.34000000000003 L 223.02000000000004 487.34000000000003 Z" stroke = "blue" stroke-width = "1" fill = "blue" />
<path d = "M355.18000000000006 487.34000000000003L 365.09200000000004 487.34000000000003 L 375.0040000000001 475.776 L 375.0040000000001 487.34000000000003 L 396.4800000000001 487.34000000000003 L 398.13200000000006 460.908 L 396.4800000000001 452.648 L 353.5280000000001 452.648 L 353.5280000000001 464.212 L 366.744 464.212 L 360.1360000000001 470.82000000000005 L 343.61600000000004 470.82000000000005 L 337.00800000000004 464.212 L 337.00800000000004 436.12800000000004 L 343.61600000000004 427.868 L 368.3960000000001 427.868 L 373.35200000000003 434.476 L 396.4800000000001 434.476 L 396.4800000000001 416.30400000000003 L 386.56800000000004 404.74 L 323.79200000000003 404.74 L 313.88000000000005 413 L 313.88000000000005 470.82000000000005 L 323.79200000000003 487.34000000000003 L 355.18000000000006 487.34000000000003 Z" stroke = "purple" stroke-width = "1" fill = "purple" /></svg>