<svg width="438" height="438" viewbox = "0 0 438 438"  xmlns="http://www.w3.org/2000/svg">

<!--<json>[
    {
        "color": "red",
        "x": 0.07,
        "y": 0.2,
        "width": 0.1,
        "character": "N"
    },
    {
        "color": "orange",
        "x": 0.195,
        "y": 0.2,
        "width": 0.1,
        "character": "O"
    },
    {
        "color": "#ff2cb4",
        "x": 0.32,
        "y": 0.2,
        "width": 0.1,
        "character": " "
    },
    {
        "color": "yellow",
        "x": 0.44500000000000006,
        "y": 0.2,
        "width": 0.1,
        "character": "M"
    },
    {
        "color": "green",
        "x": 0.5700000000000001,
        "y": 0.2,
        "width": 0.1,
        "character": "O"
    },
    {
        "color": "blue",
        "x": 0.6950000000000001,
        "y": 0.2,
        "width": 0.1,
        "character": "N"
    },
    {
        "color": "purple",
        "x": 0.8200000000000002,
        "y": 0.2,
        "width": 0.1,
        "character": "E"
    },
    {
        "color": "red",
        "x": 0.9450000000000001,
        "y": 0.2,
        "width": 0.1,
        "character": "Y"
    },
    {
        "color": "orange",
        "x": 0.07,
        "y": 0.4,
        "width": 0.1,
        "character": "N"
    },
    {
        "color": "yellow",
        "x": 0.195,
        "y": 0.4,
        "width": 0.1,
        "character": "O"
    },
    {
        "color": "#ff2cb4",
        "x": 0.32,
        "y": 0.4,
        "width": 0.1,
        "character": " "
    },
    {
        "color": "green",
        "x": 0.44500000000000006,
        "y": 0.4,
        "width": 0.1,
        "character": "M"
    },
    {
        "color": "blue",
        "x": 0.5700000000000001,
        "y": 0.4,
        "width": 0.1,
        "character": "I"
    },
    {
        "color": "purple",
        "x": 0.6950000000000001,
        "y": 0.4,
        "width": 0.1,
        "character": "N"
    },
    {
        "color": "red",
        "x": 0.8200000000000002,
        "y": 0.4,
        "width": 0.1,
        "character": "I"
    },
    {
        "color": "orange",
        "x": 0.9450000000000001,
        "y": 0.4,
        "width": 0.1,
        "character": "N"
    },
    {
        "color": "yellow",
        "x": 0.07,
        "y": 0.6000000000000001,
        "width": 0.1,
        "character": "G"
    },
    {
        "color": "#ff2cb4",
        "x": 0.195,
        "y": 0.6000000000000001,
        "width": 0.1,
        "character": " "
    },
    {
        "color": "green",
        "x": 0.32,
        "y": 0.6000000000000001,
        "width": 0.1,
        "character": "N"
    },
    {
        "color": "blue",
        "x": 0.44500000000000006,
        "y": 0.6000000000000001,
        "width": 0.1,
        "character": "O"
    },
    {
        "color": "#ff2cb4",
        "x": 0.5700000000000001,
        "y": 0.6000000000000001,
        "width": 0.1,
        "character": " "
    },
    {
        "color": "purple",
        "x": 0.6950000000000001,
        "y": 0.6000000000000001,
        "width": 0.1,
        "character": "P"
    },
    {
        "color": "red",
        "x": 0.8200000000000002,
        "y": 0.6000000000000001,
        "width": 0.1,
        "character": "R"
    },
    {
        "color": "orange",
        "x": 0.9450000000000001,
        "y": 0.6000000000000001,
        "width": 0.1,
        "character": "O"
    },
    {
        "color": "yellow",
        "x": 0.07,
        "y": 0.8,
        "width": 0.1,
        "character": "P"
    },
    {
        "color": "green",
        "x": 0.195,
        "y": 0.8,
        "width": 0.1,
        "character": "E"
    },
    {
        "color": "blue",
        "x": 0.32,
        "y": 0.8,
        "width": 0.1,
        "character": "R"
    },
    {
        "color": "purple",
        "x": 0.44500000000000006,
        "y": 0.8,
        "width": 0.1,
        "character": "T"
    },
    {
        "color": "red",
        "x": 0.5700000000000001,
        "y": 0.8,
        "width": 0.1,
        "character": "Y"
    }
]</json>-->
<path d = "M 0 0 L438 0 L438 438 L0 438 L0 0 Z" stroke = "black" stroke-width = "1" fill = "black" />
<path d = "M8.760000000000002 109.5L63.50999999999999 109.5L118.25999999999999 109.5L173.01000000000002 109.5L227.76000000000002 109.5L282.51000000000005 109.5L337.2600000000001 109.5L392.01000000000005 109.5L8.760000000000002 197.10000000000002L63.50999999999999 197.10000000000002L118.25999999999999 197.10000000000002Z" stroke = "red" stroke-width = "1" fill = "red" />
<path d = "M85.41 109.5L85.41 109.5L140.16 109.5L194.91000000000003 109.5L249.66000000000003 109.5L304.41 109.5L359.1600000000001 109.5L413.91 109.5L30.660000000000004 197.10000000000002L85.41 197.10000000000002L140.16 197.10000000000002L194.91000000000003 197.10000000000002L249.66000000000003 197.10000000000002L304.41 197.10000000000002L359.1600000000001 197.10000000000002L413.91 197.10000000000002L30.660000000000004 284.7L85.41 284.7L140.16 284.7L194.91000000000003 284.7L249.66000000000003 284.7L304.41 284.7Z" stroke = "orange" stroke-width = "1" fill = "orange" />
<path d = "M173.01000000000002 109.5L63.50999999999999 109.5L118.25999999999999 109.5L173.01000000000002 109.5L227.76000000000002 109.5L282.51000000000005 109.5L337.2600000000001 109.5L392.01000000000005 109.5L8.760000000000002 197.10000000000002L63.50999999999999 197.10000000000002L118.25999999999999 197.10000000000002L173.01000000000002 197.10000000000002L227.76000000000002 197.10000000000002Z" stroke = "yellow" stroke-width = "1" fill = "yellow" />
<path d = "M249.66000000000003 109.5L85.41 109.5L140.16 109.5L194.91000000000003 109.5L249.66000000000003 109.5L304.41 109.5L359.1600000000001 109.5L413.91 109.5L30.660000000000004 197.10000000000002L85.41 197.10000000000002L140.16 197.10000000000002L194.91000000000003 197.10000000000002L249.66000000000003 197.10000000000002L304.41 197.10000000000002L359.1600000000001 197.10000000000002L413.91 197.10000000000002L30.660000000000004 284.7L85.41 284.7L140.16 284.7L194.91000000000003 284.7L249.66000000000003 284.7L304.41 284.7Z" stroke = "green" stroke-width = "1" fill = "green" />
<path d = "M282.51000000000005 109.5L63.50999999999999 109.5L118.25999999999999 109.5L173.01000000000002 109.5L227.76000000000002 109.5L282.51000000000005 109.5L337.2600000000001 109.5L392.01000000000005 109.5L8.760000000000002 197.10000000000002L63.50999999999999 197.10000000000002L118.25999999999999 197.10000000000002Z" stroke = "blue" stroke-width = "1" fill = "blue" />
<path d = "M337.2600000000001 109.5L63.50999999999999 109.5L118.25999999999999 109.5L173.01000000000002 109.5L227.76000000000002 109.5L282.51000000000005 109.5L337.2600000000001 109.5L392.01000000000005 109.5L8.760000000000002 197.10000000000002L63.50999999999999 197.10000000000002L118.25999999999999 197.10000000000002L173.01000000000002 197.10000000000002L227.76000000000002 197.10000000000002Z" stroke = "purple" stroke-width = "1" fill = "purple" />
<path d = "M392.01000000000005 65.7L63.50999999999999 65.7L118.25999999999999 65.7L173.01000000000002 65.7L227.76000000000002 65.7L282.51000000000005 65.7L337.2600000000001 65.7L392.01000000000005 65.7L8.760000000000002 153.3L63.50999999999999 153.3Z" stroke = "red" stroke-width = "1" fill = "red" />
<path d = "M8.760000000000002 197.10000000000002L63.50999999999999 109.5L118.25999999999999 109.5L173.01000000000002 109.5L227.76000000000002 109.5L282.51000000000005 109.5L337.2600000000001 109.5L392.01000000000005 109.5L8.760000000000002 197.10000000000002L63.50999999999999 197.10000000000002L118.25999999999999 197.10000000000002Z" stroke = "orange" stroke-width = "1" fill = "orange" />
<path d = "M85.41 197.10000000000002L85.41 109.5L140.16 109.5L194.91000000000003 109.5L249.66000000000003 109.5L304.41 109.5L359.1600000000001 109.5L413.91 109.5L30.660000000000004 197.10000000000002L85.41 197.10000000000002L140.16 197.10000000000002L194.91000000000003 197.10000000000002L249.66000000000003 197.10000000000002L304.41 197.10000000000002L359.1600000000001 197.10000000000002L413.91 197.10000000000002L30.660000000000004 284.7L85.41 284.7L140.16 284.7L194.91000000000003 284.7L249.66000000000003 284.7L304.41 284.7Z" stroke = "yellow" stroke-width = "1" fill = "yellow" />
<path d = "M173.01000000000002 197.10000000000002L63.50999999999999 109.5L118.25999999999999 109.5L173.01000000000002 109.5L227.76000000000002 109.5L282.51000000000005 109.5L337.2600000000001 109.5L392.01000000000005 109.5L8.760000000000002 197.10000000000002L63.50999999999999 197.10000000000002L118.25999999999999 197.10000000000002L173.01000000000002 197.10000000000002L227.76000000000002 197.10000000000002Z" stroke = "green" stroke-width = "1" fill = "green" />
<path d = "M227.76000000000002 197.10000000000002L63.50999999999999 109.5L118.25999999999999 109.5L173.01000000000002 109.5L227.76000000000002 109.5L282.51000000000005 109.5L337.2600000000001 109.5L392.01000000000005 109.5L8.760000000000002 197.10000000000002L63.50999999999999 197.10000000000002L118.25999999999999 197.10000000000002L173.01000000000002 197.10000000000002L227.76000000000002 197.10000000000002Z" stroke = "blue" stroke-width = "1" fill = "blue" />
<path d = "M282.51000000000005 197.10000000000002L63.50999999999999 109.5L118.25999999999999 109.5L173.01000000000002 109.5L227.76000000000002 109.5L282.51000000000005 109.5L337.2600000000001 109.5L392.01000000000005 109.5L8.760000000000002 197.10000000000002L63.50999999999999 197.10000000000002L118.25999999999999 197.10000000000002Z" stroke = "purple" stroke-width = "1" fill = "purple" />
<path d = "M337.2600000000001 197.10000000000002L63.50999999999999 109.5L118.25999999999999 109.5L173.01000000000002 109.5L227.76000000000002 109.5L282.51000000000005 109.5L337.2600000000001 109.5L392.01000000000005 109.5L8.760000000000002 197.10000000000002L63.50999999999999 197.10000000000002L118.25999999999999 197.10000000000002L173.01000000000002 197.10000000000002L227.76000000000002 197.10000000000002Z" stroke = "red" stroke-width = "1" fill = "red" />
<path d = "M392.01000000000005 197.10000000000002L63.50999999999999 109.5L118.25999999999999 109.5L173.01000000000002 109.5L227.76000000000002 109.5L282.51000000000005 109.5L337.2600000000001 109.5L392.01000000000005 109.5L8.760000000000002 197.10000000000002L63.50999999999999 197.10000000000002L118.25999999999999 197.10000000000002Z" stroke = "orange" stroke-width = "1" fill = "orange" />
<path d = "M30.660000000000004 284.7L85.41 109.5L140.16 109.5L194.91000000000003 109.5L249.66000000000003 109.5L304.41 109.5L359.1600000000001 109.5L413.91 109.5L30.660000000000004 197.10000000000002L85.41 197.10000000000002L140.16 197.10000000000002L194.91000000000003 197.10000000000002L249.66000000000003 197.10000000000002L304.41 197.10000000000002L359.1600000000001 197.10000000000002L413.91 197.10000000000002L30.660000000000004 284.7L85.41 284.7L140.16 284.7L194.91000000000003 284.7L249.66000000000003 284.7L304.41 284.7L359.1600000000001 284.7L413.91 284.7L30.660000000000004 372.30000000000007Z" stroke = "yellow" stroke-width = "1" fill = "yellow" />
<path d = "M118.25999999999999 284.7L63.50999999999999 109.5L118.25999999999999 109.5L173.01000000000002 109.5L227.76000000000002 109.5L282.51000000000005 109.5L337.2600000000001 109.5L392.01000000000005 109.5L8.760000000000002 197.10000000000002L63.50999999999999 197.10000000000002L118.25999999999999 197.10000000000002Z" stroke = "green" stroke-width = "1" fill = "green" />
<path d = "M194.91000000000003 284.7L85.41 109.5L140.16 109.5L194.91000000000003 109.5L249.66000000000003 109.5L304.41 109.5L359.1600000000001 109.5L413.91 109.5L30.660000000000004 197.10000000000002L85.41 197.10000000000002L140.16 197.10000000000002L194.91000000000003 197.10000000000002L249.66000000000003 197.10000000000002L304.41 197.10000000000002L359.1600000000001 197.10000000000002L413.91 197.10000000000002L30.660000000000004 284.7L85.41 284.7L140.16 284.7L194.91000000000003 284.7L249.66000000000003 284.7L304.41 284.7Z" stroke = "blue" stroke-width = "1" fill = "blue" />
<path d = "M282.51000000000005 284.7L63.50999999999999 109.5L118.25999999999999 109.5L173.01000000000002 109.5L227.76000000000002 109.5L282.51000000000005 109.5L337.2600000000001 109.5L392.01000000000005 109.5L8.760000000000002 197.10000000000002L63.50999999999999 197.10000000000002L118.25999999999999 197.10000000000002L173.01000000000002 197.10000000000002L227.76000000000002 197.10000000000002L282.51000000000005 197.10000000000002L337.2600000000001 197.10000000000002L392.01000000000005 197.10000000000002Z" stroke = "purple" stroke-width = "1" fill = "purple" />
<path d = "M337.2600000000001 284.7L63.50999999999999 109.5L118.25999999999999 109.5L173.01000000000002 109.5L227.76000000000002 109.5L282.51000000000005 109.5L337.2600000000001 109.5L392.01000000000005 109.5L8.760000000000002 197.10000000000002L63.50999999999999 197.10000000000002L118.25999999999999 197.10000000000002L173.01000000000002 197.10000000000002L227.76000000000002 197.10000000000002L282.51000000000005 197.10000000000002L337.2600000000001 197.10000000000002L392.01000000000005 197.10000000000002L8.760000000000002 284.7L63.50999999999999 284.7L118.25999999999999 284.7L173.01000000000002 284.7Z" stroke = "red" stroke-width = "1" fill = "red" />
<path d = "M413.91 284.7L85.41 109.5L140.16 109.5L194.91000000000003 109.5L249.66000000000003 109.5L304.41 109.5L359.1600000000001 109.5L413.91 109.5L30.660000000000004 197.10000000000002L85.41 197.10000000000002L140.16 197.10000000000002L194.91000000000003 197.10000000000002L249.66000000000003 197.10000000000002L304.41 197.10000000000002L359.1600000000001 197.10000000000002L413.91 197.10000000000002L30.660000000000004 284.7L85.41 284.7L140.16 284.7L194.91000000000003 284.7L249.66000000000003 284.7L304.41 284.7Z" stroke = "orange" stroke-width = "1" fill = "orange" />
<path d = "M8.760000000000002 372.30000000000007L63.50999999999999 109.5L118.25999999999999 109.5L173.01000000000002 109.5L227.76000000000002 109.5L282.51000000000005 109.5L337.2600000000001 109.5L392.01000000000005 109.5L8.760000000000002 197.10000000000002L63.50999999999999 197.10000000000002L118.25999999999999 197.10000000000002L173.01000000000002 197.10000000000002L227.76000000000002 197.10000000000002L282.51000000000005 197.10000000000002L337.2600000000001 197.10000000000002L392.01000000000005 197.10000000000002Z" stroke = "yellow" stroke-width = "1" fill = "yellow" />
<path d = "M63.50999999999999 372.30000000000007L63.50999999999999 109.5L118.25999999999999 109.5L173.01000000000002 109.5L227.76000000000002 109.5L282.51000000000005 109.5L337.2600000000001 109.5L392.01000000000005 109.5L8.760000000000002 197.10000000000002L63.50999999999999 197.10000000000002L118.25999999999999 197.10000000000002L173.01000000000002 197.10000000000002L227.76000000000002 197.10000000000002Z" stroke = "green" stroke-width = "1" fill = "green" />
<path d = "M118.25999999999999 372.30000000000007L63.50999999999999 109.5L118.25999999999999 109.5L173.01000000000002 109.5L227.76000000000002 109.5L282.51000000000005 109.5L337.2600000000001 109.5L392.01000000000005 109.5L8.760000000000002 197.10000000000002L63.50999999999999 197.10000000000002L118.25999999999999 197.10000000000002L173.01000000000002 197.10000000000002L227.76000000000002 197.10000000000002L282.51000000000005 197.10000000000002L337.2600000000001 197.10000000000002L392.01000000000005 197.10000000000002L8.760000000000002 284.7L63.50999999999999 284.7L118.25999999999999 284.7L173.01000000000002 284.7Z" stroke = "blue" stroke-width = "1" fill = "blue" />
<path d = "M173.01000000000002 328.50000000000006L63.50999999999999 65.7L118.25999999999999 65.7L173.01000000000002 65.7L227.76000000000002 65.7L282.51000000000005 65.7L337.2600000000001 65.7L392.01000000000005 65.7L8.760000000000002 153.3Z" stroke = "purple" stroke-width = "1" fill = "purple" />
<path d = "M227.76000000000002 328.50000000000006L63.50999999999999 65.7L118.25999999999999 65.7L173.01000000000002 65.7L227.76000000000002 65.7L282.51000000000005 65.7L337.2600000000001 65.7L392.01000000000005 65.7L8.760000000000002 153.3L63.50999999999999 153.3Z" stroke = "red" stroke-width = "1" fill = "red" /></svg>