<svg width="826" height="826" viewbox = "0 0 826 826"  xmlns="http://www.w3.org/2000/svg">

<!--<json>[
    {
        "color": "red",
        "x": 0.07,
        "y": 0.2,
        "width": 0.1,
        "character": "I"
    },
    {
        "color": "orange",
        "x": 0.195,
        "y": 0.2,
        "width": 0.1,
        "character": "T"
    },
    {
        "color": "yellow",
        "x": 0.32,
        "y": 0.2,
        "width": 0.1,
        "character": "'"
    },
    {
        "color": "green",
        "x": 0.44500000000000006,
        "y": 0.2,
        "width": 0.1,
        "character": "S"
    },
    {
        "color": "#ff2cb4",
        "x": 0.5700000000000001,
        "y": 0.2,
        "width": 0.1,
        "character": " "
    },
    {
        "color": "#ff2cb4",
        "x": 0.6950000000000001,
        "y": 0.2,
        "width": 0.1,
        "character": " "
    },
    {
        "color": "#ff2cb4",
        "x": 0.8200000000000002,
        "y": 0.2,
        "width": 0.1,
        "character": " "
    },
    {
        "color": "#ff2cb4",
        "x": 0.9450000000000001,
        "y": 0.2,
        "width": 0.1,
        "character": " "
    },
    {
        "color": "blue",
        "x": 0.07,
        "y": 0.4,
        "width": 0.1,
        "character": "R"
    },
    {
        "color": "purple",
        "x": 0.195,
        "y": 0.4,
        "width": 0.1,
        "character": "I"
    },
    {
        "color": "red",
        "x": 0.32,
        "y": 0.4,
        "width": 0.1,
        "character": "G"
    },
    {
        "color": "orange",
        "x": 0.44500000000000006,
        "y": 0.4,
        "width": 0.1,
        "character": "H"
    },
    {
        "color": "yellow",
        "x": 0.5700000000000001,
        "y": 0.4,
        "width": 0.1,
        "character": "T"
    },
    {
        "color": "#ff2cb4",
        "x": 0.6950000000000001,
        "y": 0.4,
        "width": 0.1,
        "character": " "
    },
    {
        "color": "#ff2cb4",
        "x": 0.8200000000000002,
        "y": 0.4,
        "width": 0.1,
        "character": " "
    },
    {
        "color": "#ff2cb4",
        "x": 0.9450000000000001,
        "y": 0.4,
        "width": 0.1,
        "character": " "
    },
    {
        "color": "#ff2cb4",
        "x": 0.07,
        "y": 0.6000000000000001,
        "width": 0.1,
        "character": " "
    },
    {
        "color": "green",
        "x": 0.195,
        "y": 0.6000000000000001,
        "width": 0.1,
        "character": "T"
    },
    {
        "color": "blue",
        "x": 0.32,
        "y": 0.6000000000000001,
        "width": 0.1,
        "character": "O"
    },
    {
        "color": "#ff2cb4",
        "x": 0.44500000000000006,
        "y": 0.6000000000000001,
        "width": 0.1,
        "character": " "
    },
    {
        "color": "#ff2cb4",
        "x": 0.5700000000000001,
        "y": 0.6000000000000001,
        "width": 0.1,
        "character": " "
    },
    {
        "color": "#ff2cb4",
        "x": 0.6950000000000001,
        "y": 0.6000000000000001,
        "width": 0.1,
        "character": " "
    },
    {
        "color": "#ff2cb4",
        "x": 0.8200000000000002,
        "y": 0.6000000000000001,
        "width": 0.1,
        "character": " "
    },
    {
        "color": "#ff2cb4",
        "x": 0.9450000000000001,
        "y": 0.6000000000000001,
        "width": 0.1,
        "character": " "
    },
    {
        "color": "#ff2cb4",
        "x": 0.07,
        "y": 0.8,
        "width": 0.1,
        "character": " "
    },
    {
        "color": "#ff2cb4",
        "x": 0.195,
        "y": 0.8,
        "width": 0.1,
        "character": " "
    },
    {
        "color": "purple",
        "x": 0.32,
        "y": 0.8,
        "width": 0.1,
        "character": "R"
    },
    {
        "color": "red",
        "x": 0.44500000000000006,
        "y": 0.8,
        "width": 0.1,
        "character": "E"
    },
    {
        "color": "orange",
        "x": 0.5700000000000001,
        "y": 0.8,
        "width": 0.1,
        "character": "B"
    },
    {
        "color": "yellow",
        "x": 0.6950000000000001,
        "y": 0.8,
        "width": 0.1,
        "character": "E"
    },
    {
        "color": "green",
        "x": 0.8200000000000002,
        "y": 0.8,
        "width": 0.1,
        "character": "L"
    }
]</json>-->
<path d = "M 0 0 L826 0 L826 826 L0 826 L0 0 Z" stroke = "black" stroke-width = "1" fill = "black" />
<path d = "M16.520000000000003 206.5L 16.520000000000003 183.372 L 33.040000000000006 183.372 L 33.040000000000006 148.68 L 16.520000000000003 148.68 L 16.520000000000003 123.9 L 99.12 123.9 L 99.12 148.68 L 79.29600000000002 148.68 L 79.29600000000002 183.372 L 99.12 183.372 L 99.12 206.5 L 16.520000000000003 206.5 Z" stroke = "red" stroke-width = "1" fill = "red" />
<path d = "M119.76999999999998 123.9L 202.37 123.9 L 202.37 161.89600000000002 L 175.938 161.89600000000002 L 175.938 206.5 L 142.898 206.5 L 142.898 161.89600000000002 L 119.76999999999998 161.89600000000002 L 119.76999999999998 123.9 Z" stroke = "orange" stroke-width = "1" fill = "orange" />
<path d = "M259.364 123.9L 251.10399999999998 145.376 L 269.276 145.376 L 279.188 123.9 L 259.364 123.9 Z" stroke = "yellow" stroke-width = "1" fill = "yellow" />
<path d = "M354.35400000000004 206.5L 336.182 206.5 L 326.27000000000004 193.284 L 326.27000000000004 178.416 L 334.53000000000003 178.416 L 341.13800000000003 186.67600000000002 L 346.09400000000005 191.632 L 360.96200000000005 191.632 L 372.52600000000007 191.632 L 382.43800000000005 185.024 L 384.09000000000003 175.11200000000002 L 370.874 165.20000000000002 L 352.70200000000006 158.592 L 337.83400000000006 153.636 L 331.22600000000006 145.376 L 327.922 138.768 L 326.27000000000004 133.812 L 329.574 127.20400000000001 L 334.53000000000003 125.552 L 346.09400000000005 123.9 L 365.91800000000006 123.9 L 380.78600000000006 123.9 L 389.04600000000005 127.20400000000001 L 402.26200000000006 132.16 L 405.56600000000003 138.768 L 408.87000000000006 145.376 L 397.30600000000004 151.984 L 384.09000000000003 142.072 L 364.266 138.768 L 354.35400000000004 140.42000000000002 L 360.96200000000005 145.376 L 380.78600000000006 151.984 L 395.65400000000005 160.244 L 400.61 171.808 L 402.26200000000006 188.32800000000003 L 394.00200000000007 196.58800000000002 L 380.78600000000006 206.5 L 354.35400000000004 206.5 Z" stroke = "green" stroke-width = "1" fill = "green" />
<path d = "M16.520000000000003 371.70000000000005L 16.520000000000003 289.1 L 80.94800000000001 289.1 L 99.12 305.62 L 100.77200000000002 338.66 L 84.25200000000001 348.572 L 99.12 371.70000000000005 L 66.08000000000001 371.70000000000005 L 56.168000000000006 355.18000000000006 L 56.168000000000006 371.70000000000005 L 51.212 371.70000000000005 L 51.212 332.052 L 64.428 332.052 L 74.34000000000002 320.48800000000006 L 66.08000000000001 308.92400000000004 L 49.56000000000001 308.92400000000004 L 49.56000000000001 332.052 L 51.212 332.052 L 51.212 371.70000000000005 L 16.520000000000003 371.70000000000005 Z" stroke = "blue" stroke-width = "1" fill = "blue" />
<path d = "M119.76999999999998 371.70000000000005L 119.76999999999998 348.572 L 136.29 348.572 L 136.29 313.88 L 119.76999999999998 313.88 L 119.76999999999998 289.1 L 202.37 289.1 L 202.37 313.88 L 182.546 313.88 L 182.546 348.572 L 202.37 348.572 L 202.37 371.70000000000005 L 119.76999999999998 371.70000000000005 Z" stroke = "purple" stroke-width = "1" fill = "purple" />
<path d = "M264.32 371.70000000000005L 274.23199999999997 371.70000000000005 L 284.144 360.136 L 284.144 371.70000000000005 L 305.62 371.70000000000005 L 307.272 345.26800000000003 L 305.62 337.00800000000004 L 262.668 337.00800000000004 L 262.668 348.572 L 275.884 348.572 L 269.276 355.18000000000006 L 252.75599999999997 355.18000000000006 L 246.148 348.572 L 246.148 320.48800000000006 L 252.75599999999997 312.228 L 277.536 312.228 L 282.49199999999996 318.836 L 305.62 318.836 L 305.62 300.66400000000004 L 295.70799999999997 289.1 L 232.932 289.1 L 223.01999999999998 297.36 L 223.01999999999998 355.18000000000006 L 232.932 371.70000000000005 L 264.32 371.70000000000005 Z" stroke = "red" stroke-width = "1" fill = "red" />
<path d = "M326.27000000000004 371.70000000000005L 326.27000000000004 289.1 L 354.35400000000004 289.1 L 354.35400000000004 305.62 L 379.134 305.62 L 379.134 289.1 L 408.87000000000006 289.1 L 408.87000000000006 371.70000000000005 L 380.78600000000006 371.70000000000005 L 380.78600000000006 351.87600000000003 L 354.35400000000004 351.87600000000003 L 354.35400000000004 371.70000000000005 L 326.27000000000004 371.70000000000005 Z" stroke = "orange" stroke-width = "1" fill = "orange" />
<path d = "M429.52000000000004 289.1L 512.12 289.1 L 512.12 327.096 L 485.68800000000005 327.096 L 485.68800000000005 371.70000000000005 L 452.648 371.70000000000005 L 452.648 327.096 L 429.52000000000004 327.096 L 429.52000000000004 289.1 Z" stroke = "yellow" stroke-width = "1" fill = "yellow" />
<path d = "M119.76999999999998 454.30000000000007L 202.37 454.30000000000007 L 202.37 492.29600000000005 L 175.938 492.29600000000005 L 175.938 536.9000000000001 L 142.898 536.9000000000001 L 142.898 492.29600000000005 L 119.76999999999998 492.29600000000005 L 119.76999999999998 454.30000000000007 Z" stroke = "green" stroke-width = "1" fill = "green" />
<path d = "M264.32 536.9000000000001L 264.32 505.51200000000006 L 269.276 505.51200000000006 L 274.23199999999997 500.5560000000001 L 274.23199999999997 493.9480000000001 L 269.276 488.9920000000001 L 259.364 488.9920000000001 L 254.408 493.9480000000001 L 254.408 500.5560000000001 L 259.364 505.51200000000006 L 264.32 505.51200000000006 L 264.32 536.9000000000001 L 232.932 536.9000000000001 L 223.01999999999998 523.6840000000001 L 223.01999999999998 464.21200000000005 L 231.27999999999997 454.30000000000007 L 294.056 454.30000000000007 L 305.62 464.21200000000005 L 305.62 523.6840000000001 L 305.62 523.6840000000001 L 294.056 536.9000000000001 L 264.32 536.9000000000001 Z" stroke = "blue" stroke-width = "1" fill = "blue" />
<path d = "M223.01999999999998 702.1000000000001L 223.01999999999998 619.5000000000001 L 287.448 619.5000000000001 L 305.62 636.0200000000001 L 307.272 669.0600000000002 L 290.752 678.9720000000001 L 305.62 702.1000000000001 L 272.58 702.1000000000001 L 262.668 685.5800000000002 L 262.668 702.1000000000001 L 257.712 702.1000000000001 L 257.712 662.4520000000001 L 270.928 662.4520000000001 L 280.84 650.8880000000001 L 272.58 639.3240000000001 L 256.06 639.3240000000001 L 256.06 662.4520000000001 L 257.712 662.4520000000001 L 257.712 702.1000000000001 L 223.01999999999998 702.1000000000001 Z" stroke = "purple" stroke-width = "1" fill = "purple" />
<path d = "M326.27000000000004 702.1000000000001L 326.27000000000004 619.5000000000001 L 408.87000000000006 619.5000000000001 L 408.87000000000006 642.6280000000002 L 385.742 642.6280000000002 L 385.742 652.5400000000001 L 408.87000000000006 652.5400000000001 L 408.87000000000006 669.0600000000002 L 385.742 669.0600000000002 L 385.742 680.6240000000001 L 408.87000000000006 680.6240000000001 L 410.52200000000005 702.1000000000001 L 326.27000000000004 702.1000000000001 Z" stroke = "red" stroke-width = "1" fill = "red" />
<path d = "M429.52000000000004 619.5000000000001L 507.16400000000004 619.5000000000001 L 512.12 624.4560000000001 L 512.12 657.4960000000001 L 507.16400000000004 662.4520000000001 L 512.12 667.4080000000001 L 512.12 695.4920000000001 L 505.51200000000006 702.1000000000001 L 467.516 702.1000000000001 L 467.516 687.2320000000001 L 472.47200000000004 687.2320000000001 L 477.42800000000005 682.2760000000001 L 472.47200000000004 677.3200000000002 L 467.516 677.3200000000002 L 467.516 647.5840000000001 L 474.124 647.5840000000001 L 479.08000000000004 642.6280000000002 L 474.124 637.6720000000001 L 467.516 637.6720000000001 L 467.516 702.1000000000001 L 429.52000000000004 702.1000000000001 L 429.52000000000004 619.5000000000001 Z" stroke = "orange" stroke-width = "1" fill = "orange" />
<path d = "M532.7700000000001 702.1000000000001L 532.7700000000001 619.5000000000001 L 615.3700000000001 619.5000000000001 L 615.3700000000001 642.6280000000002 L 592.2420000000001 642.6280000000002 L 592.2420000000001 652.5400000000001 L 615.3700000000001 652.5400000000001 L 615.3700000000001 669.0600000000002 L 592.2420000000001 669.0600000000002 L 592.2420000000001 680.6240000000001 L 615.3700000000001 680.6240000000001 L 617.0220000000002 702.1000000000001 L 532.7700000000001 702.1000000000001 Z" stroke = "yellow" stroke-width = "1" fill = "yellow" />
<path d = "M636.0200000000002 702.1000000000001L 636.0200000000002 619.5000000000001 L 677.3200000000002 619.5000000000001 L 677.3200000000002 662.4520000000001 L 718.6200000000002 662.4520000000001 L 718.6200000000002 702.1000000000001 L 636.0200000000002 702.1000000000001 Z" stroke = "green" stroke-width = "1" fill = "green" /></svg>