<svg width="776" height="776" viewbox = "0 0 776 776"  xmlns="http://www.w3.org/2000/svg">

<!--<json>{
    "text": "WWW.    SEATTLE  .PINK",
    "left_margin": 0.02,
    "top_margin": 0.2,
    "horizontal_gap": 0.04,
    "vertical_gap": 0.1,
    "number_of_columns": 8,
    "rainbow": true
}</json>-->
<path d = "M 0 0 L776 0 L776 776 L0 776 L0 0 Z" stroke = "black" stroke-width = "1" fill = "black" />
<path d = "M15.520000000000003 155.2L 38.800000000000004 155.2 L 46.56000000000001 170.72 L 54.32000000000001 155.2 L 60.528000000000006 170.72 L 68.28800000000001 155.2 L 93.12 155.2 L 62.080000000000005 232.8 L 55.87200000000001 220.38400000000001 L 48.11200000000001 232.8 L 15.520000000000003 155.2 Z" stroke = "red" stroke-width = "1" fill = "red" />
<path d = "M124.16 155.2L 147.44 155.2 L 155.2 170.72 L 162.96 155.2 L 169.168 170.72 L 176.928 155.2 L 201.76 155.2 L 170.72 232.8 L 164.512 220.38400000000001 L 156.752 232.8 L 124.16 155.2 Z" stroke = "orange" stroke-width = "1" fill = "orange" />
<path d = "M232.8 155.2L 256.08000000000004 155.2 L 263.84000000000003 170.72 L 271.6 155.2 L 277.808 170.72 L 285.56800000000004 155.2 L 310.40000000000003 155.2 L 279.36 232.8 L 273.15200000000004 220.38400000000001 L 265.392 232.8 L 232.8 155.2 Z" stroke = "yellow" stroke-width = "1" fill = "yellow" />
<path d = "M366.272 232.8L 366.272 212.624 L 386.448 212.624 L 386.448 232.8 L 366.272 232.8 Z" stroke = "green" stroke-width = "1" fill = "green" />
<path d = "M41.90400000000001 388L 24.832000000000004 388 L 15.520000000000003 375.584 L 15.520000000000003 361.616 L 23.280000000000005 361.616 L 29.488000000000007 369.376 L 34.144000000000005 374.032 L 48.11200000000001 374.032 L 58.97600000000001 374.032 L 68.28800000000001 367.82399999999996 L 69.84000000000002 358.512 L 57.424000000000014 349.2 L 40.352000000000004 342.99199999999996 L 26.384000000000007 338.33599999999996 L 20.176000000000002 330.57599999999996 L 17.072000000000003 324.368 L 15.520000000000003 319.712 L 18.624000000000002 313.50399999999996 L 23.280000000000005 311.952 L 34.144000000000005 310.4 L 52.76800000000001 310.4 L 66.73600000000002 310.4 L 74.49600000000001 313.50399999999996 L 86.912 318.15999999999997 L 90.01600000000002 324.368 L 93.12 330.57599999999996 L 82.256 336.784 L 69.84000000000002 327.472 L 51.21600000000001 324.368 L 41.90400000000001 325.91999999999996 L 48.11200000000001 330.57599999999996 L 66.73600000000002 336.784 L 80.70400000000001 344.544 L 85.36000000000001 355.40799999999996 L 86.912 370.928 L 79.15200000000002 378.688 L 66.73600000000002 388 L 41.90400000000001 388 Z" stroke = "blue" stroke-width = "1" fill = "blue" />
<path d = "M124.16 388L 124.16 310.4 L 201.76 310.4 L 201.76 332.128 L 180.032 332.128 L 180.032 341.44 L 201.76 341.44 L 201.76 356.96 L 180.032 356.96 L 180.032 367.82399999999996 L 201.76 367.82399999999996 L 203.312 388 L 124.16 388 Z" stroke = "purple" stroke-width = "1" fill = "purple" />
<path d = "M232.8 388L 248.32000000000002 310.4 L 294.88 308.84799999999996 L 310.40000000000003 388 L 285.56800000000004 388 L 273.15200000000004 325.91999999999996 L 266.944 353.856 L 280.91200000000003 353.856 L 284.016 372.48 L 263.84000000000003 372.48 L 259.184 388 L 232.8 388 Z" stroke = "red" stroke-width = "1" fill = "red" />
<path d = "M341.44 310.4L 419.04 310.4 L 419.04 346.096 L 394.208 346.096 L 394.208 388 L 363.168 388 L 363.168 346.096 L 341.44 346.096 L 341.44 310.4 Z" stroke = "orange" stroke-width = "1" fill = "orange" />
<path d = "M450.08 310.4L 527.68 310.4 L 527.68 346.096 L 502.848 346.096 L 502.848 388 L 471.808 388 L 471.808 346.096 L 450.08 346.096 L 450.08 310.4 Z" stroke = "yellow" stroke-width = "1" fill = "yellow" />
<path d = "M558.72 388L 558.72 310.4 L 597.52 310.4 L 597.52 350.75199999999995 L 636.32 350.75199999999995 L 636.32 388 L 558.72 388 Z" stroke = "green" stroke-width = "1" fill = "green" />
<path d = "M667.3600000000001 388L 667.3600000000001 310.4 L 744.9600000000002 310.4 L 744.9600000000002 332.128 L 723.2320000000001 332.128 L 723.2320000000001 341.44 L 744.9600000000002 341.44 L 744.9600000000002 356.96 L 723.2320000000001 356.96 L 723.2320000000001 367.82399999999996 L 744.9600000000002 367.82399999999996 L 746.5120000000002 388 L 667.3600000000001 388 Z" stroke = "blue" stroke-width = "1" fill = "blue" />
<path d = "M148.992 543.2L 148.992 523.024 L 169.168 523.024 L 169.168 543.2 L 148.992 543.2 Z" stroke = "purple" stroke-width = "1" fill = "purple" />
<path d = "M232.8 543.2L 232.8 465.6 L 297.98400000000004 465.6 L 310.40000000000003 476.464 L 310.40000000000003 505.952 L 297.98400000000004 516.816 L 270.048 516.816 L 270.048 543.2 L 262.288 543.2 L 262.288 498.192 L 271.6 498.192 L 277.808 491.98400000000004 L 271.6 485.776 L 262.288 485.776 L 262.288 543.2 L 232.8 543.2 Z" stroke = "red" stroke-width = "1" fill = "red" />
<path d = "M341.44 543.2L 341.44 521.472 L 356.96 521.472 L 356.96 488.88 L 341.44 488.88 L 341.44 465.6 L 419.04 465.6 L 419.04 488.88 L 400.416 488.88 L 400.416 521.472 L 419.04 521.472 L 419.04 543.2 L 341.44 543.2 Z" stroke = "orange" stroke-width = "1" fill = "orange" />
<path d = "M450.08 543.2L 450.08 465.6 L 474.912 465.6 L 498.192 485.776 L 498.192 465.6 L 527.68 465.6 L 527.68 543.2 L 498.192 543.2 L 473.36 524.576 L 473.36 543.2 L 450.08 543.2 Z" stroke = "yellow" stroke-width = "1" fill = "yellow" />
<path d = "M558.72 543.2L 558.72 465.6 L 595.9680000000001 465.6 L 595.9680000000001 484.22400000000005 L 613.0400000000001 465.6 L 636.32 465.6 L 637.8720000000001 490.432 L 620.8000000000001 507.504 L 636.32 521.472 L 636.32 543.2 L 614.592 543.2 L 595.9680000000001 524.576 L 595.9680000000001 543.2 L 558.72 543.2 Z" stroke = "green" stroke-width = "1" fill = "green" /></svg>