<svg width="826" height="826" viewbox = "0 0 826 826"  xmlns="http://www.w3.org/2000/svg">

<!--<json>[
    {
        "color": "red",
        "x": 0.3,
        "y": 0.2,
        "width": 0.1,
        "character": "A"
    },
    {
        "color": "orange",
        "x": 0.42500000000000004,
        "y": 0.2,
        "width": 0.1,
        "character": "C"
    },
    {
        "color": "yellow",
        "x": 0.55,
        "y": 0.2,
        "width": 0.1,
        "character": "A"
    },
    {
        "color": "green",
        "x": 0.675,
        "y": 0.2,
        "width": 0.1,
        "character": "B"
    }
]</json>-->
<path d = "M 0 0 L826 0 L826 826 L0 826 L0 0 Z" stroke = "black" stroke-width = "1" fill = "black" />
<path d = "M206.49999999999997 206.5L 223.01999999999998 123.9 L 272.58 122.248 L 289.09999999999997 206.5 L 262.668 206.5 L 249.45199999999997 140.42000000000002 L 242.84399999999997 170.156 L 257.712 170.156 L 261.01599999999996 189.98000000000002 L 239.53999999999996 189.98000000000002 L 234.58399999999997 206.5 L 206.49999999999997 206.5 Z" stroke = "red" stroke-width = "1" fill = "red" />
<path d = "M351.05 206.5L 375.83000000000004 206.5 L 392.35 189.98000000000002 L 392.35 166.852 L 364.266 166.852 L 364.266 166.852 L 359.31 173.46 L 351.05 173.46 L 346.094 166.852 L 346.094 156.94 L 351.05 151.984 L 360.962 151.984 L 364.266 156.94 L 392.35 156.94 L 392.35 132.16 L 385.742 123.9 L 318.01 123.9 L 309.75 132.16 L 309.75 196.58800000000002 L 318.01 206.5 L 375.83000000000004 206.5 Z" stroke = "orange" stroke-width = "1" fill = "orange" />
<path d = "M413 206.5L 429.52 123.9 L 479.08000000000004 122.248 L 495.6 206.5 L 469.168 206.5 L 455.952 140.42000000000002 L 449.344 170.156 L 464.212 170.156 L 467.516 189.98000000000002 L 446.04 189.98000000000002 L 441.084 206.5 L 413 206.5 Z" stroke = "yellow" stroke-width = "1" fill = "yellow" />
<path d = "M516.2500000000001 123.9L 593.8940000000001 123.9 L 598.8500000000001 128.856 L 598.8500000000001 161.89600000000002 L 593.8940000000001 166.852 L 598.8500000000001 171.808 L 598.8500000000001 199.892 L 592.2420000000001 206.5 L 554.2460000000001 206.5 L 554.2460000000001 191.632 L 559.2020000000001 191.632 L 564.1580000000001 186.67600000000002 L 559.2020000000001 181.72000000000003 L 554.2460000000001 181.72000000000003 L 554.2460000000001 151.984 L 560.8540000000002 151.984 L 565.8100000000002 147.02800000000002 L 560.8540000000002 142.072 L 554.2460000000001 142.072 L 554.2460000000001 206.5 L 516.2500000000001 206.5 L 516.2500000000001 123.9 Z" stroke = "green" stroke-width = "1" fill = "green" /></svg>